<svg xmlns="http://www.w3.org/2000/svg" width="834" height="299" viewBox="0 0 834 299">
<g>
<path d="M 584.00 186.95 C579.46,189.46 572.27,190.77 566.21,190.18 C563.51,189.92 562.82,189.36 562.36,187.05 C562.03,185.40 560.81,183.78 559.41,183.14 C557.18,182.13 557.06,181.68 557.63,176.25 C558.11,171.67 557.91,170.17 556.67,169.14 C554.81,167.60 553.61,168.17 548.17,173.21 C545.26,175.91 544.31,177.48 544.70,178.96 C545.25,181.08 544.10,181.53 539.25,181.12 C537.15,180.94 536.56,181.83 536.91,184.67 C537.08,186.08 535.44,186.65 527.50,187.95 C524.20,188.49 520.04,189.23 518.25,189.58 C515.37,190.15 514.51,189.75 510.87,186.11 C507.29,182.53 506.83,181.58 507.38,178.87 C507.72,177.15 508.00,174.68 508.00,173.37 C508.00,172.05 509.24,169.67 510.75,168.07 C515.98,162.53 517.00,160.97 517.00,158.56 C517.00,155.79 515.51,155.14 509.03,155.13 C503.80,155.12 502.36,156.06 501.48,160.09 C501.10,161.84 499.76,163.61 498.17,164.45 C496.70,165.23 492.83,168.88 489.57,172.57 C483.99,178.87 475.92,184.00 471.58,184.00 C468.35,184.00 468.78,178.52 472.09,177.47 C473.13,177.14 474.74,176.11 475.67,175.18 C476.59,174.26 478.73,173.05 480.42,172.50 C483.18,171.60 485.42,168.75 488.68,162.02 C489.07,161.20 491.10,158.86 493.20,156.81 C496.30,153.76 496.99,152.38 496.96,149.29 C496.95,147.21 496.29,144.38 495.50,143.00 C493.41,139.35 493.69,132.33 496.13,126.93 C498.18,122.39 498.37,122.25 501.31,123.09 C505.49,124.29 506.17,125.17 506.74,130.17 C507.47,136.56 510.28,141.25 516.21,145.98 C520.75,149.59 521.97,150.10 524.93,149.62 C526.82,149.32 528.96,149.56 529.69,150.16 C531.35,151.54 531.38,154.46 529.74,156.18 C529.04,156.91 527.91,158.78 527.21,160.35 C526.52,161.92 525.11,163.42 524.07,163.69 C522.98,163.98 521.32,166.27 520.12,169.17 L 518.05 174.16 L 521.25 177.08 C523.01,178.68 524.78,180.00 525.19,180.00 C526.56,180.00 533.85,175.89 535.05,174.43 C535.71,173.65 536.91,173.00 537.71,173.00 C538.52,173.00 541.73,170.71 544.84,167.90 C547.95,165.10 551.50,162.33 552.73,161.75 C553.96,161.17 555.20,159.93 555.50,159.00 C555.80,158.06 558.28,155.04 561.02,152.27 C564.21,149.05 566.00,146.37 566.00,144.84 C566.00,141.06 568.54,138.39 573.45,137.01 C578.82,135.51 581.07,136.67 580.92,140.88 C580.87,142.32 581.13,144.46 581.50,145.64 C582.07,147.44 581.52,148.07 578.09,149.58 C573.64,151.55 573.55,151.70 574.95,155.37 C575.53,156.90 575.55,158.96 574.99,160.68 C572.51,168.34 570.22,174.02 569.06,175.42 C567.17,177.70 569.19,178.17 578.05,177.50 C586.46,176.86 587.77,176.77 587.97,176.26 C588.00,176.17 588.00,176.06 588.00,175.93 C588.00,175.91 588.00,175.89 588.00,175.86 C588.00,175.42 588.67,175.32 589.50,175.64 C590.33,175.95 591.00,175.79 591.00,175.28 C591.00,174.77 593.97,171.94 597.59,169.00 L 604.19 163.65 L 598.84 162.04 C594.81,160.83 593.43,159.92 593.19,158.32 C593.03,157.16 592.01,155.42 590.94,154.45 C588.78,152.49 588.30,148.00 590.25,147.99 C590.94,147.99 592.25,146.67 593.17,145.05 C594.55,142.62 596.28,141.68 603.17,139.63 C607.75,138.26 616.45,136.61 622.50,135.96 C628.55,135.31 633.95,134.44 634.50,134.03 C635.05,133.62 636.91,133.01 638.64,132.69 C641.00,132.24 642.22,132.58 643.55,134.05 C644.52,135.13 645.14,136.15 644.91,136.31 C644.68,136.47 643.32,137.34 641.88,138.24 C639.89,139.48 639.37,140.48 639.73,142.35 C640.14,144.50 639.58,145.09 635.47,146.91 C632.87,148.06 630.13,149.00 629.37,149.00 C628.62,149.00 628.00,149.49 628.00,150.09 C628.00,150.83 625.69,150.95 620.62,150.48 C613.13,149.78 609.00,150.35 609.00,152.10 C609.00,152.63 609.79,153.35 610.75,153.69 C611.71,154.04 613.28,155.12 614.24,156.10 C615.68,157.59 617.09,157.80 622.74,157.34 L 629.50 156.80 L 631.67 161.35 C633.95,166.15 633.83,166.52 629.30,168.88 C627.47,169.83 626.78,169.68 625.24,168.03 C623.40,166.05 623.38,166.05 619.59,168.08 C617.50,169.20 613.58,170.38 610.89,170.70 C607.28,171.13 606.01,171.70 606.03,172.89 C606.07,174.96 608.38,178.00 609.91,178.00 C610.56,178.00 612.23,179.23 613.62,180.73 L 616.15 183.45 L 617.82 181.34 C619.83,178.81 626.19,176.61 628.95,177.48 C631.52,178.30 634.90,176.45 635.90,173.68 C636.38,172.35 639.38,170.14 643.59,168.00 C647.39,166.07 650.54,163.82 650.60,163.00 C650.65,162.18 650.76,160.95 650.85,160.28 C651.03,158.83 656.48,155.81 657.34,156.68 C657.67,157.00 658.96,156.63 660.22,155.84 C661.47,155.05 662.95,154.48 663.50,154.56 C666.70,155.02 670.67,157.33 671.52,159.20 C672.06,160.40 673.08,161.56 673.79,161.78 C675.19,162.23 681.76,155.69 686.50,149.12 C690.01,144.26 697.45,140.00 702.44,140.00 C707.19,140.00 708.99,142.98 710.07,152.59 C710.54,156.78 711.37,160.74 711.91,161.39 C712.49,162.10 712.56,164.02 712.07,166.19 C711.21,170.01 711.38,174.18 712.46,175.94 C714.05,178.52 725.78,176.63 727.02,173.61 C727.49,172.45 729.69,169.58 731.91,167.24 C734.13,164.89 736.42,162.08 737.00,161.00 C737.58,159.91 738.57,159.13 739.20,159.26 C739.83,159.39 740.83,157.93 741.43,156.00 C742.79,151.60 748.07,144.09 749.83,144.04 C750.56,144.02 753.85,142.43 757.14,140.50 C763.24,136.92 767.58,136.17 771.13,138.07 C774.53,139.89 778.00,136.83 778.00,132.01 C778.00,129.85 778.90,125.79 780.00,123.00 C781.10,120.21 782.00,116.03 782.00,113.70 C782.00,110.66 782.52,109.15 783.88,108.31 C785.06,107.57 786.40,104.50 787.51,99.98 C788.99,93.93 789.75,92.52 792.38,90.91 C796.59,88.34 799.21,88.51 801.82,91.51 C804.58,94.68 804.55,95.36 801.57,98.34 C800.23,99.68 798.82,102.51 798.44,104.64 C798.05,106.76 797.31,109.04 796.79,109.69 C795.26,111.64 793.02,121.16 793.01,125.84 C793.00,128.66 792.30,131.08 791.00,132.73 C789.69,134.39 789.00,136.78 789.00,139.67 C789.00,142.29 788.05,145.97 786.64,148.78 C785.34,151.38 784.49,154.10 784.75,154.83 C785.41,156.69 783.07,164.80 780.61,169.17 C778.68,172.60 778.66,172.96 780.21,174.67 C781.12,175.68 784.59,177.58 787.91,178.89 C794.24,181.40 795.87,183.51 794.07,186.87 C792.92,189.01 789.89,188.78 787.91,186.39 C786.28,184.43 784.34,184.66 781.90,187.10 C780.20,188.80 779.18,189.05 776.65,188.42 C772.32,187.33 763.86,187.19 755.50,188.06 C747.62,188.89 745.93,188.34 741.50,183.51 C738.36,180.08 731.08,176.68 729.34,177.83 C728.79,178.20 727.87,179.35 727.30,180.38 C726.31,182.20 723.55,183.49 714.00,186.62 C705.78,189.30 694.62,186.39 695.09,181.69 C695.21,180.48 694.95,178.20 694.51,176.62 C693.90,174.41 694.10,173.52 695.36,172.82 C697.44,171.65 697.50,167.13 695.44,166.34 C694.59,166.01 694.11,165.16 694.38,164.44 C694.66,163.73 694.35,162.72 693.69,162.19 C691.75,160.63 688.12,162.65 687.40,165.71 C687.03,167.24 686.15,169.18 685.44,170.00 C684.74,170.82 684.01,172.13 683.83,172.90 C683.44,174.58 676.67,181.00 675.30,181.00 C674.78,181.00 673.31,182.11 672.04,183.46 C670.77,184.81 668.03,187.09 665.96,188.53 L 662.18 191.15 L 658.12 188.46 C653.24,185.23 652.39,183.08 654.45,179.10 C655.30,177.45 656.00,174.95 656.00,173.55 C656.00,171.30 655.58,171.00 652.51,171.00 C649.55,171.00 648.63,171.60 646.34,175.06 C644.56,177.75 642.68,179.31 640.77,179.70 C638.37,180.18 637.94,180.71 638.20,182.87 C638.47,185.24 637.93,185.68 632.10,187.76 C626.35,189.81 625.54,189.89 624.02,188.52 C622.07,186.75 618.42,186.51 617.44,188.09 C616.59,189.47 603.83,188.33 599.33,186.47 C597.59,185.76 595.64,184.20 595.01,183.02 C593.68,180.53 588.50,180.49 588.50,182.98 C588.50,183.79 586.47,185.58 584.00,186.95 ZM 224.00 188.59 C221.52,188.68 218.60,189.03 217.50,189.37 C216.40,189.71 214.38,189.33 213.00,188.53 C210.02,186.79 205.19,186.60 201.33,188.06 C197.99,189.34 186.47,187.47 183.81,185.22 C182.88,184.44 181.83,182.49 181.48,180.89 C180.67,177.21 178.27,175.92 173.63,176.67 C171.00,177.10 169.63,178.00 168.73,179.88 C167.68,182.09 166.73,182.55 162.66,182.81 C159.51,183.01 157.00,182.57 155.45,181.56 C152.06,179.34 151.03,179.58 147.55,183.38 C143.42,187.88 135.09,189.95 128.75,188.04 C126.41,187.34 123.93,186.60 123.23,186.40 C122.53,186.21 121.70,185.25 121.40,184.27 C121.09,183.30 119.91,180.53 118.78,178.11 C116.05,172.30 115.34,165.81 117.22,163.93 C118.01,163.14 118.95,160.99 119.32,159.15 C119.69,157.31 121.00,154.55 122.24,153.03 C123.49,151.50 125.21,148.94 126.08,147.35 C128.12,143.58 138.66,137.32 144.40,136.46 C148.35,135.87 149.16,136.09 151.19,138.27 C157.51,145.04 160.40,148.92 161.60,152.25 C161.95,153.21 162.63,154.00 163.12,154.00 C163.60,154.00 164.00,154.90 164.00,156.00 C164.00,157.10 163.59,158.00 163.09,158.00 C162.59,158.00 161.87,159.80 161.50,161.99 C161.13,164.19 160.42,166.24 159.91,166.55 C158.38,167.50 158.80,175.00 160.39,175.00 C163.04,175.00 167.23,172.15 169.11,169.07 C170.14,167.36 172.08,165.47 173.40,164.86 C174.73,164.26 177.00,161.58 178.45,158.91 C179.90,156.25 181.51,153.80 182.02,153.49 C183.07,152.84 184.82,146.86 185.39,142.01 C185.87,137.88 187.41,136.92 193.00,137.24 L 197.50 137.50 L 197.32 141.70 C197.21,144.18 196.26,147.09 194.99,148.80 C193.09,151.37 192.96,152.27 193.81,156.97 C194.42,160.29 194.42,163.51 193.83,165.66 C193.31,167.53 193.22,170.07 193.63,171.28 C194.04,172.50 194.48,174.10 194.61,174.84 C194.97,176.84 195.16,176.89 199.50,176.08 C201.85,175.64 205.05,173.94 207.25,171.98 C210.82,168.79 211.00,168.33 211.00,162.45 C211.00,157.96 211.51,155.62 212.85,153.88 C213.87,152.57 215.02,149.06 215.41,146.08 C216.42,138.30 217.35,137.00 221.91,137.00 C226.38,137.00 228.60,138.97 227.20,141.69 C226.69,142.68 226.46,144.04 226.70,144.70 C226.94,145.36 226.14,149.41 224.92,153.70 C223.70,157.99 222.70,162.04 222.69,162.71 C222.68,163.37 222.34,163.71 221.95,163.47 C220.76,162.73 219.86,171.45 220.57,176.82 C221.36,182.80 224.04,184.39 226.65,180.41 C227.53,179.06 229.21,178.00 230.45,178.00 C231.67,178.00 233.81,176.76 235.20,175.25 C236.59,173.74 239.02,171.60 240.61,170.50 C243.62,168.41 245.47,166.53 252.04,158.89 C254.80,155.68 256.00,153.34 256.00,151.20 C256.00,149.50 256.41,147.86 256.92,147.55 C257.47,147.21 257.44,145.56 256.84,143.40 C256.30,141.43 256.07,139.59 256.34,139.32 C256.61,139.06 256.19,137.30 255.41,135.43 C254.11,132.33 254.16,131.69 255.99,128.28 C257.10,126.22 258.00,123.96 258.00,123.26 C258.00,121.16 262.51,121.85 264.83,124.31 C266.07,125.64 267.00,127.92 267.00,129.67 C267.00,131.54 267.98,133.76 269.54,135.45 C270.99,137.01 271.86,138.90 271.56,139.84 C270.77,142.40 273.39,144.88 277.50,145.44 C278.53,145.59 282.62,147.28 287.00,149.37 C288.38,150.03 289.65,151.60 289.83,152.86 C290.28,155.99 287.53,161.45 284.33,163.78 C280.79,166.36 279.48,174.64 282.10,177.88 C283.99,180.20 286.98,180.73 287.04,178.75 C287.10,177.02 296.67,172.68 299.05,173.30 C300.19,173.60 301.00,173.31 301.00,172.60 C301.00,171.94 303.48,169.04 306.50,166.18 C310.56,162.32 312.00,160.25 311.99,158.23 C311.98,156.38 312.99,154.67 315.11,152.93 C317.74,150.76 318.23,149.68 318.18,146.13 C318.15,143.81 317.61,140.34 316.98,138.43 C315.77,134.77 316.47,127.44 318.24,125.25 C319.54,123.63 324.47,123.63 325.74,125.25 C326.28,125.94 326.99,128.83 327.31,131.67 C327.63,134.52 328.31,137.67 328.83,138.67 C329.34,139.68 330.16,141.85 330.65,143.50 C331.31,145.74 332.22,146.58 334.25,146.81 C335.74,146.99 337.81,148.21 338.85,149.54 C339.90,150.87 341.98,152.42 343.47,152.99 C344.97,153.56 346.42,154.89 346.70,155.95 C346.98,157.02 348.40,158.15 349.88,158.47 C352.31,159.01 352.51,159.41 352.17,163.05 C351.96,165.24 352.31,167.67 352.95,168.44 C354.23,169.98 353.42,176.62 351.85,177.60 C351.34,177.91 349.84,179.88 348.52,181.98 C347.19,184.07 344.74,186.39 343.06,187.14 C341.38,187.88 340.00,188.78 340.00,189.14 C340.00,189.50 338.09,189.35 335.75,188.82 C333.41,188.30 330.26,188.04 328.75,188.26 C326.73,188.55 325.61,188.06 324.54,186.41 C323.73,185.18 321.70,183.87 320.03,183.51 C316.74,182.78 315.94,180.13 318.39,178.09 C319.45,177.21 320.82,177.29 324.14,178.45 C330.76,180.76 333.31,180.41 337.44,176.62 C342.64,171.85 342.60,168.23 337.27,162.69 C335.05,160.39 332.72,157.49 332.08,156.25 C331.23,154.60 330.05,154.00 327.59,154.00 C323.36,154.00 321.70,155.98 322.28,160.32 C322.68,163.29 322.35,163.95 319.62,165.54 C314.76,168.38 310.00,172.38 310.00,173.63 C310.00,174.26 308.24,176.36 306.08,178.31 C303.17,180.94 301.57,181.70 299.91,181.27 C298.19,180.82 297.80,181.03 298.24,182.18 C299.14,184.53 297.72,185.90 293.96,186.29 C292.06,186.49 289.83,186.91 289.00,187.21 C288.17,187.52 285.60,188.29 283.29,188.91 C278.20,190.29 273.51,188.73 270.24,184.57 C268.47,182.33 268.30,181.43 269.19,178.89 C269.77,177.23 270.00,174.40 269.71,172.60 C269.09,168.77 269.42,168.16 273.75,165.13 C277.39,162.59 278.13,158.65 275.25,157.17 C269.30,154.13 262.48,155.66 261.82,160.20 C261.60,161.69 260.50,162.64 258.36,163.19 C254.63,164.15 253.49,166.35 255.61,168.47 C255.70,168.56 255.78,168.64 255.86,168.72 C256.37,169.22 256.68,169.53 256.63,169.74 C256.53,170.10 255.34,170.16 252.19,170.41 C251.46,170.47 250.11,171.46 249.19,172.61 C248.26,173.77 246.71,174.99 245.75,175.32 C244.79,175.66 244.00,176.58 244.00,177.37 C244.00,178.16 242.64,179.28 240.99,179.85 C239.33,180.43 237.70,181.62 237.36,182.50 C236.40,185.01 228.93,188.41 224.00,188.59 ZM 85.31 192.45 C83.52,194.91 82.00,195.72 82.00,194.23 C82.00,193.80 80.44,192.61 78.53,191.59 C76.62,190.56 75.29,189.34 75.57,188.89 C75.85,188.43 76.51,184.33 77.02,179.78 C77.63,174.43 78.50,171.11 79.48,170.39 C82.57,168.13 80.75,163.06 75.99,160.68 C74.63,160.00 73.36,158.61 73.16,157.59 C72.96,156.57 71.76,154.78 70.49,153.62 C69.22,152.45 67.40,149.02 66.44,146.00 C65.49,142.98 63.87,139.43 62.85,138.12 C61.83,136.80 60.98,134.55 60.96,133.12 C60.95,131.68 60.29,129.38 59.50,128.00 C58.71,126.62 58.05,124.60 58.04,123.49 C58.02,122.39 56.88,119.37 55.50,116.79 C52.90,111.91 52.25,108.00 54.04,108.00 C54.60,108.00 56.14,108.70 57.45,109.56 C59.67,111.02 59.87,110.98 60.48,109.06 C61.42,106.11 64.52,106.52 66.93,109.90 C68.07,111.50 69.00,113.12 69.00,113.50 C69.00,116.34 72.60,125.55 74.53,127.63 C76.42,129.67 76.68,130.54 75.80,131.94 C74.15,134.60 75.58,138.68 78.42,139.39 C80.68,139.96 82.73,143.27 82.15,145.40 C82.01,145.89 82.14,146.93 82.44,147.69 C82.86,148.79 83.42,148.85 85.08,147.95 C86.80,147.04 87.11,146.13 86.76,143.16 C86.12,137.79 87.67,133.00 90.05,133.00 C91.64,133.00 92.00,132.30 92.00,129.22 C92.00,127.14 92.72,124.41 93.61,123.15 C94.49,121.89 95.35,119.33 95.53,117.47 C96.17,110.57 102.60,105.19 106.93,107.93 C108.36,108.84 108.18,110.35 104.33,129.25 C104.02,130.76 103.45,132.00 103.04,132.00 C102.17,132.00 100.43,137.82 99.46,144.00 C99.07,146.48 97.97,149.62 97.01,151.00 C96.05,152.38 95.00,156.31 94.67,159.74 C94.34,163.18 93.60,166.88 93.01,167.98 C92.42,169.08 91.56,171.89 91.09,174.24 C89.36,182.81 87.07,190.03 85.31,192.45 ZM 427.93 186.45 C424.62,191.35 423.99,191.57 419.65,189.29 C417.10,187.95 416.87,187.42 417.40,184.15 C417.73,182.14 418.28,178.38 418.62,175.79 C418.98,173.11 420.05,170.36 421.12,169.39 C422.16,168.45 423.00,166.45 423.00,164.93 C423.00,163.41 423.79,160.75 424.75,159.03 C426.47,155.95 426.46,155.86 424.14,153.95 C422.84,152.88 420.70,152.00 419.39,152.00 C417.51,152.00 417.00,151.47 417.00,149.51 C417.00,147.38 417.58,146.93 421.04,146.38 C423.43,145.99 426.32,144.57 428.13,142.88 C430.85,140.34 431.11,139.61 430.52,136.12 C430.11,133.71 430.27,131.95 430.93,131.54 C431.52,131.18 432.00,129.99 432.00,128.91 C432.00,127.83 433.12,124.28 434.49,121.03 C436.12,117.16 436.78,114.13 436.40,112.25 C435.67,108.62 438.15,106.05 440.50,108.00 C441.33,108.68 442.00,110.09 442.00,111.12 C442.00,112.16 442.45,113.00 443.00,113.00 C443.55,113.00 444.00,111.58 444.00,109.85 L 444.00 106.69 L 456.93 107.35 C465.00,107.75 470.88,107.62 472.57,106.98 C475.60,105.82 479.00,106.53 478.99,108.32 C478.99,108.97 476.96,111.64 474.49,114.25 C471.11,117.82 469.26,119.00 467.06,119.00 C465.44,119.00 463.84,118.55 463.50,118.00 C462.62,116.58 460.95,116.76 461.25,118.25 C461.41,119.06 459.99,119.61 457.25,119.81 C454.91,119.98 453.00,120.56 453.00,121.10 C453.00,121.63 451.99,121.99 450.75,121.88 C446.18,121.49 445.14,122.04 444.01,125.48 C443.37,127.39 443.12,129.39 443.45,129.91 C443.77,130.44 443.31,132.67 442.43,134.88 C440.84,138.85 440.86,138.93 443.66,142.44 C446.58,146.10 447.90,146.69 449.55,145.07 C450.07,144.56 453.22,143.83 456.54,143.46 C462.36,142.81 462.63,142.88 463.77,145.39 C464.81,147.68 464.69,148.15 462.73,149.39 C459.75,151.28 454.81,152.25 447.28,152.42 C441.96,152.55 440.64,152.97 438.18,155.33 C436.05,157.37 435.42,158.75 435.78,160.62 C436.04,162.01 435.69,164.21 434.99,165.51 C434.30,166.81 433.98,169.17 434.30,170.74 C434.73,172.89 434.39,173.90 432.93,174.81 C431.73,175.56 431.00,177.13 431.00,178.96 C431.00,180.59 429.63,183.93 427.93,186.45 ZM 131.74 175.34 C133.79,176.80 136.46,178.00 137.67,178.00 C140.90,178.00 145.00,176.23 145.00,174.84 C145.00,174.17 145.90,172.67 146.99,171.51 C150.45,167.83 151.44,157.92 149.00,151.50 C148.05,149.00 147.61,148.80 144.25,149.35 C141.76,149.75 139.55,151.07 137.52,153.36 C135.86,155.24 133.73,157.03 132.78,157.34 C130.47,158.11 129.28,162.93 131.11,164.08 C132.22,164.77 132.05,165.26 130.25,166.53 C126.83,168.94 127.39,172.25 131.74,175.34 ZM 754.28 175.41 L 759.50 177.84 L 762.31 174.67 C767.85,168.41 768.99,165.82 769.00,159.45 C769.00,153.26 767.83,150.75 765.38,151.69 C764.62,151.98 764.00,151.72 764.00,151.11 C764.00,148.98 759.25,150.02 756.52,152.75 C752.61,156.65 748.42,163.02 747.63,166.27 C746.65,170.29 748.37,172.65 754.28,175.41 ZM 582.12 128.00 C581.75,131.01 579.00,127.71 579.00,124.25 C579.00,123.37 578.32,121.91 577.49,120.99 C576.47,119.86 576.19,118.31 576.62,116.16 C577.24,113.06 579.25,111.97 580.53,114.05 C580.98,114.77 581.60,114.74 582.54,113.97 C584.35,112.46 587.66,113.60 588.27,115.93 C589.14,119.25 587.90,123.00 585.94,123.00 C584.94,123.00 583.76,123.56 583.32,124.25 C582.54,125.48 582.37,126.01 582.12,128.00 ZM 436.00 142.56 C436.00,145.70 437.33,145.67 439.42,142.48 C440.86,140.29 440.88,139.89 439.58,139.39 C437.40,138.55 436.00,139.79 436.00,142.56 ZM 263.31 151.30 C264.81,151.84 268.00,150.25 268.00,148.96 C268.00,147.43 263.27,147.85 262.66,149.44 C262.36,150.22 262.65,151.06 263.31,151.30 ZM 74.61 151.42 C74.94,152.29 75.62,153.00 76.11,153.00 C77.51,153.00 77.15,149.58 75.53,147.44 C74.10,145.54 74.06,145.55 74.03,147.67 C74.01,148.86 74.27,150.55 74.61,151.42 ZM 629.50 140.00 C629.13,140.60 630.34,141.00 632.50,141.00 C634.66,141.00 635.87,140.60 635.50,140.00 C635.16,139.45 633.81,139.00 632.50,139.00 C631.19,139.00 629.84,139.45 629.50,140.00 ZM 748.70 182.37 C749.67,183.34 752.11,182.72 752.09,181.50 C752.09,180.95 751.16,180.36 750.04,180.18 C748.03,179.87 747.33,181.00 748.70,182.37 ZM 505.00 148.43 C505.00,149.35 505.86,150.00 507.08,150.00 C509.52,150.00 509.18,147.66 506.67,147.18 C505.68,146.99 505.00,147.50 505.00,148.43 ZM 190.51 145.02 C190.86,145.58 191.56,145.77 192.07,145.46 C193.28,144.71 193.28,142.00 192.06,142.00 C190.71,142.00 189.77,143.82 190.51,145.02 ZM 796.57 176.24 C796.90,176.57 797.02,177.54 796.84,178.40 C796.60,179.50 796.07,179.68 795.01,179.02 C793.83,178.28 793.78,177.82 794.74,176.86 C795.42,176.18 796.24,175.91 796.57,176.24 Z" fill="rgb(21,65,127)"/>
<path d="M 428.32 191.75 C426.26,193.26 419.36,193.28 416.25,191.78 C412.98,190.20 413.34,186.94 418.50,171.89 C420.98,164.67 423.00,158.16 423.00,157.44 C423.00,156.72 421.78,155.99 420.28,155.82 C418.58,155.62 417.01,154.50 416.06,152.82 C414.72,150.40 414.74,149.78 416.27,146.57 C417.84,143.26 418.29,143.00 422.46,143.00 L 426.94 143.00 L 428.44 137.75 C429.27,134.86 431.09,127.11 432.50,120.52 C433.91,113.93 435.52,108.08 436.08,107.52 C436.64,106.96 442.81,106.22 449.80,105.88 C456.78,105.54 466.89,104.91 472.25,104.49 L 482.00 103.70 L 481.95 106.60 C481.89,110.46 479.09,115.89 476.00,118.16 C473.46,120.03 462.56,121.91 453.93,121.97 L 449.37 122.00 L 446.83 130.75 C445.43,135.56 444.46,139.97 444.67,140.55 C444.93,141.26 447.82,141.31 453.68,140.71 C463.66,139.68 467.00,140.59 467.00,144.34 C467.00,147.31 463.74,151.57 459.96,153.52 C458.21,154.42 454.26,155.01 449.80,155.02 C445.78,155.02 441.88,155.42 441.12,155.91 C440.36,156.39 437.55,164.37 434.88,173.64 C431.94,183.84 429.35,190.99 428.32,191.75 ZM 427.93 186.45 C429.63,183.93 431.00,180.59 431.00,178.96 C431.00,177.13 431.73,175.56 432.93,174.81 C434.39,173.90 434.73,172.89 434.30,170.74 C433.98,169.17 434.30,166.81 434.99,165.51 C435.69,164.21 436.04,162.01 435.78,160.62 C435.42,158.75 436.05,157.37 438.18,155.33 C440.64,152.97 441.96,152.55 447.28,152.42 C454.81,152.25 459.75,151.28 462.73,149.39 C464.69,148.15 464.81,147.68 463.77,145.39 C462.63,142.88 462.36,142.81 456.54,143.46 C453.22,143.83 450.07,144.56 449.55,145.07 C447.90,146.69 446.58,146.10 443.66,142.44 C440.86,138.93 440.84,138.85 442.43,134.88 C443.31,132.67 443.77,130.44 443.45,129.91 C443.12,129.39 443.37,127.39 444.01,125.48 C445.14,122.04 446.18,121.49 450.75,121.88 C451.99,121.99 453.00,121.63 453.00,121.10 C453.00,120.56 454.91,119.98 457.25,119.81 C459.99,119.61 461.41,119.06 461.25,118.25 C460.95,116.76 462.62,116.58 463.50,118.00 C463.84,118.55 465.44,119.00 467.06,119.00 C469.26,119.00 471.11,117.82 474.49,114.25 C476.96,111.64 478.99,108.97 478.99,108.32 C479.00,106.53 475.60,105.82 472.57,106.98 C470.88,107.62 465.00,107.75 456.93,107.35 L 444.00 106.69 L 444.00 109.85 C444.00,111.58 443.55,113.00 443.00,113.00 C442.45,113.00 442.00,112.16 442.00,111.12 C442.00,110.09 441.33,108.68 440.50,108.00 C438.15,106.05 435.67,108.62 436.40,112.25 C436.78,114.13 436.12,117.16 434.49,121.03 C433.12,124.28 432.00,127.83 432.00,128.91 C432.00,129.99 431.52,131.18 430.93,131.54 C430.27,131.95 430.11,133.71 430.52,136.12 C431.11,139.61 430.85,140.34 428.13,142.88 C426.32,144.57 423.43,145.99 421.04,146.38 C417.58,146.93 417.00,147.38 417.00,149.51 C417.00,151.47 417.51,152.00 419.39,152.00 C420.70,152.00 422.84,152.88 424.14,153.95 C426.46,155.86 426.47,155.95 424.75,159.03 C423.79,160.75 423.00,163.41 423.00,164.93 C423.00,166.45 422.16,168.45 421.12,169.39 C420.05,170.36 418.98,173.11 418.62,175.79 C418.28,178.38 417.73,182.14 417.40,184.15 C416.87,187.42 417.10,187.95 419.65,189.29 C423.99,191.57 424.62,191.35 427.93,186.45 ZM 669.86 190.26 C668.41,191.34 665.17,192.45 662.66,192.73 C658.57,193.20 657.78,192.93 655.05,190.20 C651.64,186.80 651.40,184.85 653.42,177.25 C654.19,174.36 654.51,172.00 654.13,172.00 C653.74,172.00 650.97,174.51 647.97,177.58 C642.53,183.12 639.28,185.33 631.97,187.81 L 632.10 187.76 C637.93,185.68 638.47,185.24 638.20,182.87 C637.94,180.71 638.37,180.18 640.77,179.70 C642.68,179.31 644.56,177.75 646.34,175.06 C648.63,171.60 649.55,171.00 652.51,171.00 C655.58,171.00 656.00,171.30 656.00,173.55 C656.00,174.95 655.30,177.45 654.45,179.10 C652.39,183.08 653.24,185.23 658.12,188.46 L 662.18 191.15 L 665.96 188.53 C668.03,187.09 670.77,184.81 672.04,183.46 C673.31,182.11 674.78,181.00 675.30,181.00 C676.67,181.00 683.44,174.58 683.83,172.90 C684.01,172.13 684.74,170.82 685.44,170.00 C686.15,169.18 687.03,167.24 687.40,165.71 C688.12,162.65 691.75,160.63 693.69,162.19 C694.35,162.72 694.66,163.73 694.38,164.44 C694.11,165.16 694.59,166.01 695.44,166.34 C697.50,167.13 697.44,171.65 695.36,172.82 C694.10,173.52 693.90,174.41 694.51,176.62 C694.95,178.20 695.21,180.48 695.09,181.69 C694.62,186.39 705.78,189.30 714.00,186.62 C723.55,183.49 726.31,182.20 727.30,180.38 C727.87,179.35 728.79,178.20 729.34,177.83 C731.08,176.68 738.36,180.08 741.50,183.51 C745.93,188.34 747.62,188.89 755.50,188.06 C763.86,187.19 772.32,187.33 776.65,188.42 C779.18,189.05 780.20,188.80 781.90,187.10 C784.34,184.66 786.28,184.43 787.91,186.39 C789.89,188.78 792.92,189.01 794.07,186.87 C795.87,183.51 794.24,181.40 787.91,178.89 C784.59,177.58 781.12,175.68 780.21,174.67 C778.66,172.96 778.68,172.60 780.61,169.17 C783.07,164.80 785.41,156.69 784.75,154.83 C784.49,154.10 785.34,151.38 786.64,148.78 C788.05,145.97 789.00,142.29 789.00,139.67 C789.00,136.78 789.69,134.39 791.00,132.73 C792.30,131.08 793.00,128.66 793.01,125.84 C793.02,121.16 795.26,111.64 796.79,109.69 C797.31,109.04 798.05,106.76 798.44,104.64 C798.82,102.51 800.23,99.68 801.57,98.34 C804.55,95.36 804.58,94.68 801.82,91.51 C799.21,88.51 796.59,88.34 792.38,90.91 C789.75,92.52 788.99,93.93 787.51,99.98 C786.40,104.50 785.06,107.57 783.88,108.31 C782.52,109.15 782.00,110.66 782.00,113.70 C782.00,116.03 781.10,120.21 780.00,123.00 C778.90,125.79 778.00,129.85 778.00,132.01 C778.00,136.83 774.53,139.89 771.13,138.07 C767.58,136.17 763.24,136.92 757.14,140.50 C753.85,142.43 750.56,144.02 749.83,144.04 C748.07,144.09 742.79,151.60 741.43,156.00 C740.83,157.93 739.83,159.39 739.20,159.26 C738.57,159.13 737.58,159.91 737.00,161.00 C736.42,162.08 734.13,164.89 731.91,167.24 C729.69,169.58 727.49,172.45 727.02,173.61 C725.78,176.63 714.05,178.52 712.46,175.94 C711.38,174.18 711.21,170.01 712.07,166.19 C712.11,166.02 712.14,165.86 712.17,165.69 C712.03,167.29 711.86,168.99 711.67,170.78 C711.48,172.58 711.82,174.74 712.43,175.57 C713.41,176.91 714.20,176.80 719.02,174.67 C725.46,171.81 732.54,164.70 739.17,154.43 C741.68,150.54 745.25,145.92 747.12,144.16 C754.23,137.45 765.03,134.13 769.88,137.16 C770.90,137.79 772.37,138.07 773.15,137.77 C774.03,137.44 776.38,130.10 779.38,118.37 C786.49,90.53 787.87,88.00 795.92,88.00 C801.49,88.00 804.00,90.06 804.00,94.62 C804.00,96.25 802.39,103.19 800.42,110.04 C782.92,170.98 782.45,173.00 784.96,176.97 C785.77,178.24 786.53,178.14 790.47,176.22 C795.49,173.79 799.49,173.36 800.59,175.14 C801.95,177.35 801.11,182.26 798.97,184.54 C793.36,190.51 776.80,193.96 770.38,190.50 C767.19,188.79 766.81,188.78 761.43,190.48 C751.41,193.63 740.95,190.16 737.28,182.46 C736.37,180.56 735.30,179.00 734.89,179.00 C734.49,179.00 732.84,180.10 731.24,181.45 C725.84,186.00 713.31,191.00 707.33,191.00 C696.34,191.00 693.03,186.92 692.95,173.30 L 692.90 164.50 L 688.70 169.45 C676.93,183.32 672.26,188.48 669.86,190.26 ZM 563.61 189.51 C557.95,188.28 556.00,184.99 556.00,178.28 C556.00,175.37 555.71,173.00 555.36,173.00 C555.01,173.00 551.75,175.40 548.11,178.33 C538.34,186.22 528.00,191.13 519.90,191.75 C513.68,192.22 513.12,192.08 510.00,189.29 C507.18,186.77 506.62,185.51 506.23,180.78 C505.70,174.32 507.12,169.23 511.13,163.20 C512.71,160.83 514.00,158.71 514.00,158.48 C514.00,158.24 512.68,157.37 511.06,156.53 C508.19,155.05 508.08,155.09 505.89,158.26 C498.85,168.44 485.34,181.25 477.30,185.36 C471.01,188.58 466.55,186.80 467.18,181.32 C467.41,179.27 468.85,177.58 472.50,175.01 C479.59,170.04 486.96,162.12 491.34,154.79 C494.64,149.28 495.04,147.94 494.55,144.00 C492.80,129.66 492.84,127.58 494.93,124.25 C496.61,121.57 497.60,121.00 500.53,121.00 C506.28,121.00 510.98,127.77 510.99,136.10 C511.00,139.55 513.05,141.23 522.53,145.54 C531.37,149.56 534.00,151.49 534.00,153.98 C534.00,154.90 531.53,158.92 528.50,162.91 C524.30,168.45 523.00,170.99 523.00,173.62 C523.00,175.70 523.57,177.28 524.44,177.62 C525.24,177.92 529.03,176.52 532.88,174.49 C541.30,170.07 557.02,154.47 562.06,145.54 C566.18,138.24 569.73,136.01 577.18,136.00 C581.92,136.00 582.97,136.32 583.48,137.93 C583.72,138.68 583.00,142.15 581.69,146.81 C581.72,146.47 581.64,146.09 581.50,145.64 C581.13,144.46 580.87,142.32 580.92,140.88 C581.07,136.67 578.82,135.51 573.45,137.01 C568.54,138.39 566.00,141.06 566.00,144.84 C566.00,146.37 564.21,149.05 561.02,152.27 C558.28,155.04 555.80,158.06 555.50,159.00 C555.20,159.93 553.96,161.17 552.73,161.75 C551.50,162.33 547.95,165.10 544.84,167.90 C541.73,170.71 538.52,173.00 537.71,173.00 C536.91,173.00 535.71,173.65 535.05,174.43 C533.85,175.89 526.56,180.00 525.19,180.00 C524.78,180.00 523.01,178.68 521.25,177.08 L 518.05 174.16 L 520.12 169.17 C521.32,166.27 522.98,163.98 524.07,163.69 C525.11,163.42 526.52,161.92 527.21,160.35 C527.91,158.78 529.04,156.91 529.74,156.18 C531.38,154.46 531.35,151.54 529.69,150.16 C528.96,149.56 526.82,149.32 524.93,149.62 C521.97,150.10 520.75,149.59 516.21,145.98 C510.28,141.25 507.47,136.56 506.74,130.17 C506.17,125.17 505.49,124.29 501.31,123.09 C498.37,122.25 498.18,122.39 496.13,126.93 C493.69,132.33 493.41,139.35 495.50,143.00 C496.29,144.38 496.95,147.21 496.96,149.29 C496.99,152.38 496.30,153.76 493.20,156.81 C491.10,158.86 489.07,161.20 488.68,162.02 C485.42,168.75 483.18,171.60 480.42,172.50 C478.73,173.05 476.59,174.26 475.67,175.18 C474.74,176.11 473.13,177.14 472.09,177.47 C468.78,178.52 468.35,184.00 471.58,184.00 C475.92,184.00 483.99,178.87 489.57,172.57 C492.83,168.88 496.70,165.23 498.17,164.45 C499.76,163.61 501.10,161.84 501.48,160.09 C502.36,156.06 503.80,155.12 509.03,155.13 C515.51,155.14 517.00,155.79 517.00,158.56 C517.00,160.97 515.98,162.53 510.75,168.07 C509.24,169.67 508.00,172.05 508.00,173.37 C508.00,174.68 507.72,177.15 507.38,178.87 C506.83,181.58 507.29,182.53 510.87,186.11 C514.51,189.75 515.37,190.15 518.25,189.58 C520.04,189.23 524.20,188.49 527.50,187.95 C535.44,186.65 537.08,186.08 536.91,184.67 C536.56,181.83 537.15,180.94 539.25,181.12 C544.10,181.53 545.25,181.08 544.70,178.96 C544.31,177.48 545.26,175.91 548.17,173.21 C553.61,168.17 554.81,167.60 556.67,169.14 C557.91,170.17 558.11,171.67 557.63,176.25 C557.06,181.68 557.18,182.13 559.41,183.14 C560.81,183.78 562.03,185.40 562.36,187.05 C562.61,188.31 562.93,189.05 563.61,189.51 ZM 256.63 169.74 L 256.63 169.74 C256.68,169.53 256.37,169.22 255.86,168.72 L 255.86 168.72 C255.78,168.64 255.70,168.56 255.61,168.47 C253.49,166.35 254.63,164.15 258.36,163.19 C260.50,162.64 261.60,161.69 261.82,160.20 C262.48,155.66 269.30,154.13 275.25,157.17 C278.13,158.65 277.39,162.59 273.75,165.13 C269.42,168.16 269.09,168.77 269.71,172.60 C270.00,174.40 269.77,177.23 269.19,178.89 C268.30,181.43 268.47,182.33 270.24,184.57 C273.51,188.73 278.20,190.29 283.29,188.91 C285.60,188.29 288.17,187.52 289.00,187.21 C289.83,186.91 292.06,186.49 293.96,186.29 C297.72,185.90 299.14,184.53 298.24,182.18 C297.80,181.03 298.19,180.82 299.91,181.27 C301.57,181.70 303.17,180.94 306.08,178.31 C308.24,176.36 310.00,174.26 310.00,173.63 C310.00,172.38 314.76,168.38 319.62,165.54 C322.35,163.95 322.68,163.29 322.28,160.32 C321.70,155.98 323.36,154.00 327.59,154.00 C330.05,154.00 331.23,154.60 332.08,156.25 C332.72,157.49 335.05,160.39 337.27,162.69 C342.60,168.23 342.64,171.85 337.44,176.62 C333.31,180.41 330.76,180.76 324.14,178.45 C320.82,177.29 319.45,177.21 318.39,178.09 C315.94,180.13 316.74,182.78 320.03,183.51 C321.70,183.87 323.73,185.18 324.54,186.41 C325.61,188.06 326.73,188.55 328.75,188.26 C330.26,188.04 333.41,188.30 335.75,188.82 C338.09,189.35 340.00,189.50 340.00,189.14 C340.00,188.78 341.38,187.88 343.06,187.14 C344.74,186.39 347.19,184.07 348.52,181.98 C349.84,179.88 351.34,177.91 351.85,177.60 C353.42,176.62 354.23,169.98 352.95,168.44 C352.31,167.67 351.96,165.24 352.17,163.05 C352.51,159.41 352.31,159.01 349.88,158.47 C348.40,158.15 346.98,157.02 346.70,155.95 C346.42,154.89 344.97,153.56 343.47,152.99 C341.98,152.42 339.90,150.87 338.85,149.54 C337.81,148.21 335.74,146.99 334.25,146.81 C332.22,146.58 331.31,145.74 330.65,143.50 C330.16,141.85 329.34,139.68 328.83,138.67 C328.31,137.67 327.63,134.52 327.31,131.67 C326.99,128.83 326.28,125.94 325.74,125.25 C324.47,123.63 319.54,123.63 318.24,125.25 C316.47,127.44 315.77,134.77 316.98,138.43 C317.61,140.34 318.15,143.81 318.18,146.13 C318.23,149.68 317.74,150.76 315.11,152.93 C312.99,154.67 311.98,156.38 311.99,158.23 C312.00,160.25 310.56,162.32 306.50,166.18 C303.48,169.04 301.00,171.94 301.00,172.60 C301.00,173.31 300.19,173.60 299.05,173.30 C298.14,173.06 296.16,173.56 294.07,174.35 C294.14,174.32 294.20,174.28 294.27,174.25 C304.28,169.04 316.99,150.89 315.59,143.81 C315.23,141.99 314.66,137.89 314.34,134.69 C313.02,121.66 321.32,115.62 327.89,124.85 C329.74,127.44 330.40,130.17 331.44,139.50 C331.57,140.72 335.50,144.43 341.52,149.00 C352.97,157.71 356.01,162.22 355.98,170.41 C355.94,180.29 351.14,186.69 341.68,189.50 C334.67,191.58 328.68,191.38 323.71,188.89 C315.64,184.84 313.34,180.96 316.04,175.93 C317.45,173.30 319.37,173.50 325.38,176.89 C331.17,180.17 333.37,179.89 336.86,175.45 C339.52,172.07 339.60,168.03 337.08,164.82 C335.11,162.32 327.15,156.38 326.73,157.10 C326.60,157.32 325.61,159.24 324.52,161.38 C323.44,163.51 318.29,169.25 313.09,174.13 C301.04,185.44 290.18,191.26 280.08,191.82 C274.63,192.13 273.06,191.84 270.93,190.17 C264.79,185.32 264.88,172.97 271.12,164.05 C274.57,159.14 274.19,156.73 269.90,156.21 C268.03,155.98 267.07,156.71 265.54,159.55 C264.69,161.13 261.00,165.32 256.63,169.74 ZM 85.31 192.45 C87.07,190.03 89.36,182.81 91.09,174.24 C91.56,171.89 92.42,169.08 93.01,167.98 C93.60,166.88 94.34,163.18 94.67,159.74 C95.00,156.31 96.05,152.38 97.01,151.00 C97.97,149.62 99.07,146.48 99.46,144.00 C100.43,137.82 102.17,132.00 103.04,132.00 C103.45,132.00 104.02,130.76 104.33,129.25 C108.18,110.35 108.36,108.84 106.93,107.93 C102.60,105.19 96.17,110.57 95.53,117.47 C95.35,119.33 94.49,121.89 93.61,123.15 C92.72,124.41 92.00,127.14 92.00,129.22 C92.00,132.30 91.64,133.00 90.05,133.00 C87.67,133.00 86.12,137.79 86.76,143.16 C87.11,146.13 86.80,147.04 85.08,147.95 C83.42,148.85 82.86,148.79 82.44,147.69 C82.14,146.93 82.01,145.89 82.15,145.40 C82.73,143.27 80.68,139.96 78.42,139.39 C75.58,138.68 74.15,134.60 75.80,131.94 C76.68,130.54 76.42,129.67 74.53,127.63 C72.60,125.55 69.00,116.34 69.00,113.50 C69.00,113.12 68.07,111.50 66.93,109.90 C64.52,106.52 61.42,106.11 60.48,109.06 C59.87,110.98 59.67,111.02 57.45,109.56 C56.14,108.70 54.60,108.00 54.04,108.00 C52.25,108.00 52.90,111.91 55.50,116.79 C56.88,119.37 58.02,122.39 58.04,123.49 C58.05,124.60 58.71,126.62 59.50,128.00 C60.29,129.38 60.95,131.68 60.96,133.12 C60.98,134.55 61.83,136.80 62.85,138.12 C63.87,139.43 65.49,142.98 66.44,146.00 C67.40,149.02 69.22,152.45 70.49,153.62 C71.76,154.78 72.96,156.57 73.16,157.59 C73.36,158.61 74.63,160.00 75.99,160.68 C80.75,163.06 82.57,168.13 79.48,170.39 C78.50,171.11 77.63,174.43 77.02,179.78 C76.51,184.33 75.85,188.43 75.57,188.89 C75.29,189.34 76.62,190.56 78.53,191.59 C80.44,192.61 82.00,193.80 82.00,194.23 C82.00,194.57 82.08,194.79 82.23,194.90 C80.20,194.76 78.05,194.29 76.17,193.47 C75.05,192.99 74.26,192.79 73.81,192.29 C72.86,191.25 73.38,188.87 75.37,179.68 C75.63,178.52 75.90,177.24 76.20,175.85 L 78.29 166.20 L 74.54 162.35 C68.83,156.50 62.10,142.34 53.96,119.09 L 50.67 109.69 L 52.94 107.84 C57.52,104.14 71.00,106.13 71.00,110.51 C71.00,114.61 82.44,146.00 83.94,146.00 C84.30,146.00 86.33,139.36 88.44,131.25 C94.70,107.26 96.06,105.26 105.35,106.35 C112.72,107.23 113.51,108.43 111.08,115.07 C103.85,134.79 96.75,160.20 92.93,180.00 C91.71,186.32 90.03,192.29 89.20,193.25 C88.14,194.48 85.60,195.04 82.74,194.93 C83.36,194.72 84.29,193.85 85.31,192.45 ZM 224.00 188.59 C228.93,188.41 236.40,185.01 237.36,182.50 C237.70,181.62 239.33,180.43 240.99,179.85 C242.64,179.28 244.00,178.16 244.00,177.37 C244.00,176.58 244.79,175.66 245.75,175.32 C246.71,174.99 248.26,173.77 249.19,172.61 C250.11,171.46 251.46,170.47 252.19,170.41 C254.77,170.20 256.04,170.12 256.46,169.90 C255.35,171.02 254.20,172.16 253.04,173.26 C239.92,185.81 230.50,190.81 218.28,191.74 C211.67,192.24 210.53,192.08 209.35,190.47 C208.07,188.72 207.83,188.71 204.47,190.31 C200.41,192.25 193.84,192.50 188.90,190.91 C184.76,189.57 179.35,183.85 178.48,179.90 C178.13,178.30 177.59,177.00 177.27,177.00 C176.96,177.00 174.86,178.51 172.60,180.35 C164.57,186.91 157.22,188.97 155.10,185.25 C154.38,183.98 153.72,183.77 152.69,184.50 C151.92,185.05 150.09,186.34 148.63,187.37 C147.17,188.40 144.30,189.84 142.24,190.58 C131.57,194.38 120.51,189.14 116.37,178.31 C112.84,169.06 116.77,153.02 124.83,143.85 C126.54,141.90 130.71,139.06 134.10,137.54 C149.69,130.54 162.42,139.16 163.75,154.62 C163.59,154.24 163.37,154.00 163.12,154.00 C162.63,154.00 161.95,153.21 161.60,152.25 C160.40,148.92 157.51,145.04 151.19,138.27 C149.16,136.09 148.35,135.87 144.40,136.46 C138.66,137.32 128.12,143.58 126.08,147.35 C125.21,148.94 123.49,151.50 122.24,153.03 C121.00,154.55 119.69,157.31 119.32,159.15 C118.95,160.99 118.01,163.14 117.22,163.93 C115.34,165.81 116.05,172.30 118.78,178.11 C119.91,180.53 121.09,183.30 121.40,184.27 C121.70,185.25 122.53,186.21 123.23,186.40 C123.93,186.60 126.41,187.34 128.75,188.04 C135.09,189.95 143.42,187.88 147.55,183.38 C151.03,179.58 152.06,179.34 155.45,181.56 C157.00,182.57 159.51,183.01 162.66,182.81 C166.73,182.55 167.68,182.09 168.73,179.88 C169.63,178.00 171.00,177.10 173.63,176.67 C178.27,175.92 180.67,177.21 181.48,180.89 C181.83,182.49 182.88,184.44 183.81,185.22 C186.47,187.47 197.99,189.34 201.33,188.06 C205.19,186.60 210.02,186.79 213.00,188.53 C214.38,189.33 216.40,189.71 217.50,189.37 C218.60,189.03 221.52,188.68 224.00,188.59 ZM 289.12 176.75 C287.89,177.51 287.06,178.24 287.04,178.75 C286.98,180.73 283.99,180.20 282.10,177.88 C279.48,174.64 280.79,166.36 284.33,163.78 C287.53,161.45 290.28,155.99 289.83,152.86 C289.65,151.60 288.38,150.03 287.00,149.37 C282.62,147.28 278.53,145.59 277.50,145.44 C273.39,144.88 270.77,142.40 271.56,139.84 C271.86,138.90 270.99,137.01 269.54,135.45 C267.98,133.76 267.00,131.54 267.00,129.67 C267.00,127.92 266.07,125.64 264.83,124.31 C262.51,121.85 258.00,121.16 258.00,123.26 C258.00,123.96 257.10,126.22 255.99,128.28 C254.16,131.69 254.11,132.33 255.41,135.43 C256.19,137.30 256.61,139.06 256.34,139.32 C256.07,139.59 256.30,141.43 256.84,143.40 C257.44,145.56 257.47,147.21 256.92,147.55 C256.41,147.86 256.00,149.50 256.00,151.20 C256.00,153.34 254.80,155.68 252.04,158.89 C245.47,166.53 243.62,168.41 240.61,170.50 C239.02,171.60 236.59,173.74 235.20,175.25 C233.81,176.76 231.67,178.00 230.45,178.00 C229.21,178.00 227.53,179.06 226.65,180.41 C224.04,184.39 221.36,182.80 220.57,176.82 C219.86,171.45 220.76,162.73 221.95,163.47 C222.34,163.71 222.68,163.37 222.69,162.71 C222.70,162.04 223.70,157.99 224.92,153.70 C226.14,149.41 226.94,145.36 226.70,144.70 C226.46,144.04 226.69,142.68 227.20,141.69 C228.60,138.97 226.38,137.00 221.91,137.00 C217.35,137.00 216.42,138.30 215.41,146.08 C215.02,149.06 213.87,152.57 212.85,153.88 C211.51,155.62 211.00,157.96 211.00,162.45 C211.00,168.33 210.82,168.79 207.25,171.98 C205.05,173.94 201.85,175.64 199.50,176.08 C195.16,176.89 194.97,176.84 194.61,174.84 C194.48,174.10 194.04,172.50 193.63,171.28 C193.57,171.10 193.52,170.89 193.48,170.66 C193.65,171.29 193.95,171.80 194.36,172.43 C195.44,174.07 196.96,175.00 198.59,175.00 C204.81,175.00 207.16,171.19 211.46,154.19 C212.89,148.51 214.78,142.10 215.64,139.94 C217.17,136.13 217.37,136.00 221.95,136.00 C231.07,136.00 231.83,139.89 226.49,158.94 C221.29,177.47 221.59,178.52 231.09,174.97 C235.89,173.17 238.33,171.36 243.52,165.75 C247.08,161.91 251.42,155.87 253.16,152.33 L 256.33 145.89 L 254.57 140.31 C251.38,130.18 254.66,121.00 261.48,121.00 C266.05,121.00 269.51,125.26 271.01,132.74 C271.65,135.91 272.51,139.18 272.93,140.00 C273.35,140.82 277.70,143.23 282.59,145.34 C287.49,147.45 292.06,149.64 292.75,150.21 C294.91,152.00 294.12,155.61 290.48,160.64 C284.91,168.31 282.70,173.58 284.02,176.04 C284.92,177.72 285.93,178.07 289.12,176.75 ZM 131.74 175.34 C127.39,172.25 126.83,168.94 130.25,166.53 C132.05,165.26 132.22,164.77 131.11,164.08 C129.28,162.93 130.47,158.11 132.78,157.34 C133.73,157.03 135.86,155.24 137.52,153.36 C139.55,151.07 141.76,149.75 144.25,149.35 C147.61,148.80 148.05,149.00 149.00,151.50 C151.44,157.92 150.45,167.83 146.99,171.51 C145.90,172.67 145.00,174.17 145.00,174.84 C145.00,176.23 140.90,178.00 137.67,178.00 C136.46,178.00 133.79,176.80 131.74,175.34 ZM 712.39 163.16 C712.35,162.36 712.19,161.73 711.91,161.39 C711.37,160.74 710.54,156.78 710.07,152.59 C708.99,142.98 707.19,140.00 702.44,140.00 C697.45,140.00 690.01,144.26 686.50,149.12 C681.76,155.69 675.19,162.23 673.79,161.78 C673.08,161.56 672.06,160.40 671.52,159.20 C670.67,157.33 666.70,155.02 663.50,154.56 C662.95,154.48 661.47,155.05 660.22,155.84 C658.96,156.63 657.67,157.00 657.34,156.68 C656.48,155.81 651.03,158.83 650.85,160.28 C650.76,160.95 650.65,162.18 650.60,163.00 C650.54,163.82 647.39,166.07 643.59,168.00 C639.38,170.14 636.38,172.35 635.90,173.68 C634.90,176.45 631.52,178.30 628.95,177.48 C626.19,176.61 619.83,178.81 617.82,181.34 L 616.15 183.45 L 613.62 180.73 C612.23,179.23 610.56,178.00 609.91,178.00 C608.38,178.00 606.07,174.96 606.03,172.89 C606.01,171.70 607.28,171.13 610.89,170.70 C613.58,170.38 617.50,169.20 619.59,168.08 C623.38,166.05 623.40,166.05 625.24,168.03 C626.19,169.04 626.81,169.49 627.57,169.46 C626.53,169.86 625.37,170.23 624.09,170.58 C612.11,173.89 610.50,174.53 610.50,175.96 C610.50,176.77 611.95,177.84 613.73,178.35 C616.31,179.09 618.51,178.73 624.73,176.56 C634.05,173.29 637.83,170.94 646.73,162.84 C659.45,151.28 668.44,149.33 672.35,157.31 C674.47,161.62 675.11,161.40 679.61,154.73 C689.97,139.35 701.02,133.30 708.29,139.02 C712.41,142.25 713.56,148.34 712.39,163.16 ZM 132.66 173.93 C135.73,178.31 142.53,175.81 145.99,169.03 C150.22,160.74 149.20,152.00 144.01,152.00 C141.64,152.00 135.38,157.34 133.59,160.90 C131.47,165.10 131.01,171.57 132.66,173.93 ZM 193.38 168.83 C193.41,167.78 193.56,166.63 193.83,165.66 C194.42,163.51 194.42,160.29 193.81,156.97 C192.96,152.27 193.09,151.37 194.99,148.80 C196.26,147.09 197.21,144.18 197.32,141.70 L 197.50 137.50 L 193.00 137.24 C187.41,136.92 185.87,137.88 185.39,142.01 C184.82,146.86 183.07,152.84 182.02,153.49 C181.51,153.80 179.90,156.25 178.45,158.91 C177.00,161.58 174.73,164.26 173.40,164.86 C172.08,165.47 170.14,167.36 169.11,169.07 C167.23,172.15 163.04,175.00 160.39,175.00 C158.80,175.00 158.38,167.50 159.91,166.55 C160.42,166.24 161.13,164.19 161.50,161.99 C161.87,159.80 162.59,158.00 163.09,158.00 C163.42,158.00 163.71,157.61 163.87,157.04 C163.90,160.12 163.49,163.43 162.60,166.92 C161.70,170.43 161.14,173.47 161.36,173.69 C161.57,173.91 164.26,171.79 167.33,168.98 C174.68,162.27 180.50,153.39 182.96,145.16 C185.23,137.52 186.98,136.00 193.45,136.00 C196.86,136.00 198.18,136.46 198.96,137.93 C200.55,140.90 200.33,142.51 196.37,156.68 C194.46,163.50 193.55,166.83 193.38,168.83 ZM 627.65 150.49 C627.89,150.39 628.00,150.25 628.00,150.09 C628.00,149.49 628.62,149.00 629.37,149.00 C630.13,149.00 632.87,148.06 635.47,146.91 C639.58,145.09 640.14,144.50 639.73,142.35 C639.37,140.48 639.89,139.48 641.88,138.24 C643.32,137.34 644.68,136.47 644.91,136.31 C645.14,136.15 644.52,135.13 643.55,134.05 C642.22,132.58 641.00,132.24 638.64,132.69 C636.91,133.01 635.05,133.62 634.50,134.03 C633.95,134.44 628.55,135.31 622.50,135.96 C616.45,136.61 607.75,138.26 603.17,139.63 C596.28,141.68 594.55,142.62 593.17,145.05 C592.25,146.67 590.94,147.99 590.25,147.99 C588.30,148.00 588.78,152.49 590.94,154.45 C592.01,155.42 593.03,157.16 593.19,158.32 C593.29,158.95 593.55,159.47 594.10,159.95 C590.76,157.75 589.00,154.57 589.00,150.62 C589.00,141.03 595.16,138.00 620.52,135.11 C630.43,133.98 640.01,132.54 641.82,131.91 C643.62,131.28 645.38,131.05 645.73,131.40 C646.90,132.57 641.86,145.79 639.34,148.15 C637.26,150.10 636.35,150.44 627.65,150.49 ZM 752.59 173.82 C753.11,174.56 753.61,175.06 754.15,175.35 C748.34,172.61 746.66,170.26 747.63,166.27 C748.42,163.02 752.61,156.65 756.52,152.75 C759.25,150.02 764.00,148.98 764.00,151.11 C764.00,151.72 764.62,151.98 765.38,151.69 C767.83,150.75 769.00,153.26 769.00,159.45 C768.99,165.82 767.85,168.41 762.31,174.67 L 759.50 177.84 L 754.35 175.44 C754.93,175.68 755.57,175.68 756.34,175.46 C763.22,173.48 768.24,165.60 767.78,157.50 C767.52,152.92 767.28,152.47 764.85,152.19 C761.41,151.79 756.20,156.31 753.22,162.27 C750.60,167.53 750.42,170.72 752.59,173.82 ZM 581.53 147.38 C580.97,149.33 580.32,151.46 579.60,153.68 C574.19,170.37 573.35,174.51 574.98,176.48 C576.04,177.75 576.72,177.67 580.19,175.90 C582.48,174.73 585.62,173.99 587.54,174.15 C590.32,174.39 592.02,173.52 597.55,169.03 C593.94,171.96 591.00,174.77 591.00,175.28 C591.00,175.79 590.33,175.95 589.50,175.64 C588.67,175.32 588.00,175.42 588.00,175.86 C588.00,175.89 588.00,175.91 588.00,175.93 C588.00,176.06 588.00,176.17 587.97,176.26 C587.77,176.77 586.46,176.86 578.05,177.50 C569.19,178.17 567.17,177.70 569.06,175.42 C570.22,174.02 572.51,168.34 574.99,160.68 C575.55,158.96 575.53,156.90 574.95,155.37 C573.55,151.70 573.64,151.55 578.09,149.58 C580.14,148.68 581.16,148.09 581.53,147.38 ZM 584.00 186.95 C586.47,185.58 588.50,183.79 588.50,182.98 C588.50,180.49 593.68,180.53 595.01,183.02 C595.64,184.20 597.59,185.76 599.33,186.47 C603.83,188.33 616.59,189.47 617.44,188.09 C618.42,186.51 622.07,186.75 624.02,188.52 C624.88,189.30 625.52,189.61 626.96,189.36 C619.28,191.39 607.96,192.02 601.69,190.69 C599.57,190.24 596.13,188.30 593.92,186.31 C590.31,183.05 589.80,182.87 588.23,184.25 C584.72,187.33 579.99,189.28 574.65,189.90 C578.16,189.36 581.48,188.34 584.00,186.95 ZM 632.83 166.48 C633.51,165.42 632.99,164.13 631.67,161.35 L 629.50 156.80 L 622.74 157.34 C617.09,157.80 615.68,157.59 614.24,156.10 C613.28,155.12 611.71,154.04 610.75,153.69 C609.79,153.35 609.00,152.63 609.00,152.10 C609.00,152.08 609.00,152.07 609.00,152.05 C609.09,153.22 612.72,154.06 621.50,155.07 C627.55,155.77 633.06,156.77 633.75,157.29 C634.44,157.82 635.00,159.73 635.00,161.55 C635.00,163.47 634.31,165.09 632.83,166.48 ZM 588.08 115.41 C587.16,113.44 584.21,112.58 582.54,113.97 C581.60,114.74 580.98,114.77 580.53,114.05 C579.25,111.97 577.24,113.06 576.62,116.16 C576.19,118.31 576.47,119.86 577.49,120.99 C578.32,121.91 579.00,123.37 579.00,124.25 C579.00,126.07 579.76,127.85 580.54,128.69 C578.55,128.24 577.56,127.06 575.97,123.95 C572.05,116.25 574.10,111.50 581.37,111.50 C583.86,111.50 586.44,112.04 587.11,112.71 C587.60,113.20 587.92,114.17 588.08,115.41 ZM 582.12 128.00 C582.37,126.01 582.54,125.48 583.32,124.25 C583.76,123.56 584.94,123.00 585.94,123.00 C586.76,123.00 587.45,122.35 587.92,121.35 C587.64,123.05 587.19,124.67 586.57,125.87 C585.46,128.01 584.25,128.98 582.72,128.92 C582.42,128.91 582.14,128.89 581.87,128.87 C581.99,128.68 582.08,128.40 582.12,128.00 ZM 436.00 142.56 C436.00,139.79 437.40,138.55 439.58,139.39 C440.88,139.89 440.86,140.29 439.42,142.48 C437.33,145.67 436.00,145.70 436.00,142.56 ZM 263.31 151.30 C262.65,151.06 262.36,150.22 262.66,149.44 C263.27,147.85 268.00,147.43 268.00,148.96 C268.00,150.25 264.81,151.84 263.31,151.30 ZM 74.61 151.42 C74.27,150.55 74.01,148.86 74.03,147.67 C74.06,145.55 74.10,145.54 75.53,147.44 C77.15,149.58 77.51,153.00 76.11,153.00 C75.62,153.00 74.94,152.29 74.61,151.42 ZM 629.50 140.00 C629.84,139.45 631.19,139.00 632.50,139.00 C633.81,139.00 635.16,139.45 635.50,140.00 C635.87,140.60 634.66,141.00 632.50,141.00 C630.34,141.00 629.13,140.60 629.50,140.00 ZM 748.70 182.37 C747.33,181.00 748.03,179.87 750.04,180.18 C751.16,180.36 752.09,180.95 752.09,181.50 C752.11,182.72 749.67,183.34 748.70,182.37 ZM 505.00 148.43 C505.00,147.50 505.68,146.99 506.67,147.18 C509.18,147.66 509.52,150.00 507.08,150.00 C505.86,150.00 505.00,149.35 505.00,148.43 ZM 190.51 145.02 C189.77,143.82 190.71,142.00 192.06,142.00 C193.28,142.00 193.28,144.71 192.07,145.46 C191.56,145.77 190.86,145.58 190.51,145.02 ZM 796.57 176.24 C796.24,175.91 795.42,176.18 794.74,176.86 C793.78,177.82 793.83,178.28 795.01,179.02 C796.07,179.68 796.60,179.50 796.84,178.40 C797.02,177.54 796.90,176.57 796.57,176.24 ZM 609.42 151.25 C610.64,150.18 614.52,149.91 620.62,150.48 C620.75,150.49 620.87,150.50 620.99,150.51 C614.86,150.58 609.91,150.89 609.42,151.25 ZM 596.63 161.31 C597.26,161.54 597.99,161.79 598.84,162.04 L 602.62 163.18 L 599.36 162.26 C598.38,161.99 597.47,161.67 596.63,161.31 ZM 609.12 151.61 C609.19,151.49 609.28,151.38 609.40,151.27 C609.28,151.39 609.19,151.50 609.12,151.61 Z" fill="rgb(28,66,121)"/>
<path d="M 486.86 71.58 C491.06,75.55 494.26,79.05 493.97,79.35 C493.45,79.89 490.22,77.99 476.99,69.40 C466.33,62.47 446.73,53.14 434.22,49.04 C393.56,35.72 349.79,41.63 313.03,65.41 C309.13,67.93 305.73,70.00 305.47,70.00 C305.21,70.00 302.75,71.62 300.00,73.59 C297.25,75.57 295.00,76.74 295.00,76.20 C295.00,74.56 310.52,60.48 319.30,54.16 C334.38,43.28 352.91,35.14 370.00,31.87 C381.09,29.75 403.84,30.24 416.00,32.86 C440.30,38.09 466.70,52.51 486.86,71.58 ZM 411.68 275.93 C390.12,278.88 363.22,273.76 340.90,262.45 C328.92,256.38 309.06,242.23 298.75,232.42 C293.59,227.51 290.98,223.61 294.25,225.70 C303.54,231.65 311.01,236.52 313.16,238.04 C319.14,242.28 341.15,253.04 350.50,256.30 C371.65,263.66 376.43,264.47 398.00,264.35 C416.32,264.24 418.21,264.05 429.24,261.18 C449.08,256.01 464.84,248.54 482.50,235.93 C486.35,233.18 490.37,230.44 491.44,229.83 C494.80,227.92 487.59,236.26 481.29,241.58 C478.10,244.27 474.94,247.22 474.26,248.13 C472.09,251.06 456.26,261.02 446.60,265.53 C435.88,270.54 422.98,274.38 411.68,275.93 ZM 417.79 255.43 C408.20,257.38 387.55,257.37 376.50,255.39 C358.81,252.23 335.77,242.39 322.24,232.21 C314.44,226.34 313.43,224.61 319.66,227.81 C364.45,250.81 403.04,255.37 441.09,242.16 C447.35,239.98 446.38,240.43 461.93,232.61 C468.22,229.45 472.78,227.55 472.08,228.40 C469.77,231.19 453.62,242.71 448.24,245.41 C441.28,248.90 427.37,253.48 417.79,255.43 ZM 332.00 70.43 C329.52,71.63 324.65,74.01 321.17,75.72 C315.96,78.28 315.17,78.46 316.67,76.78 C320.38,72.62 329.18,66.87 339.98,61.55 C375.16,44.22 418.34,45.96 453.74,66.15 C459.72,69.56 471.28,78.05 470.72,78.62 C470.29,79.04 454.58,72.38 451.50,70.46 C450.40,69.78 444.72,67.60 438.88,65.61 C412.59,56.65 390.54,55.05 363.00,60.11 C356.46,61.31 338.34,67.34 332.00,70.43 ZM 441.00 79.51 C441.00,80.28 440.07,80.06 430.00,76.90 C415.23,72.27 396.57,69.81 385.73,71.06 C370.15,72.85 354.69,75.56 352.11,76.94 C351.02,77.52 349.63,78.00 349.01,78.00 C346.96,78.00 349.08,76.00 352.82,74.39 C375.26,64.74 398.58,63.49 421.46,70.70 C429.10,73.11 441.00,78.48 441.00,79.51 ZM 415.30 238.95 C408.74,240.16 391.77,241.08 388.00,240.43 C386.62,240.19 382.24,239.51 378.26,238.93 C374.27,238.34 368.42,236.83 365.26,235.57 C357.17,232.37 345.80,226.87 346.27,226.40 C346.48,226.18 350.00,227.15 354.08,228.54 C369.87,233.94 379.33,235.49 396.50,235.49 C410.12,235.50 413.91,235.14 422.00,233.09 C427.23,231.77 433.45,229.85 435.83,228.84 C441.96,226.24 442.92,226.56 438.39,229.68 C433.10,233.32 422.31,237.66 415.30,238.95 Z" fill="rgb(113,161,119)"/>
<path d="M 294.51 79.34 C290.99,82.55 287.00,85.17 287.00,84.26 C287.00,81.60 304.05,64.68 315.80,55.68 C322.04,50.89 331.07,45.89 340.66,41.64 C333.15,45.17 325.89,49.40 319.30,54.16 C310.52,60.48 295.00,74.56 295.00,76.20 C295.00,76.74 297.25,75.57 300.00,73.59 C302.75,71.62 305.21,70.00 305.47,70.00 C305.73,70.00 309.13,67.93 313.03,65.41 C321.31,60.05 329.95,55.61 338.82,52.08 C322.97,58.70 305.52,69.28 294.51,79.34 ZM 374.15 233.94 C367.88,232.86 361.72,231.15 354.08,228.54 C350.00,227.15 346.48,226.18 346.27,226.40 C345.84,226.82 354.96,231.29 362.68,234.52 C359.71,233.38 356.56,232.25 355.00,231.80 C350.67,230.53 336.00,222.15 336.00,220.94 C336.00,220.05 338.68,220.70 340.50,222.05 C342.08,223.21 366.87,231.94 374.15,233.94 ZM 441.00 79.51 C441.00,78.48 429.10,73.11 421.46,70.70 C416.87,69.25 412.27,68.15 407.66,67.38 C414.67,68.31 421.52,69.58 425.00,70.74 C428.02,71.76 433.42,74.12 437.00,76.01 C440.58,77.89 444.70,80.05 446.18,80.81 C447.65,81.56 449.63,83.04 450.58,84.09 C451.53,85.14 452.13,85.96 451.90,85.92 C450.92,85.73 447.99,84.48 441.00,81.27 C433.15,77.68 422.97,74.67 412.98,72.80 C418.79,73.83 424.65,75.23 430.00,76.90 C440.07,80.06 441.00,80.28 441.00,79.51 ZM 373.72 67.87 C366.69,69.25 359.72,71.42 352.82,74.39 C349.08,76.00 346.96,78.00 349.01,78.00 C349.63,78.00 351.02,77.52 352.11,76.94 C353.84,76.01 361.36,74.49 370.83,73.05 C360.52,75.04 350.51,78.21 342.86,82.07 C339.52,83.75 336.57,84.90 336.29,84.62 C335.06,83.40 353.69,72.00 356.92,72.00 C357.93,72.00 360.72,71.29 363.12,70.43 C365.63,69.53 369.50,68.63 373.72,67.87 ZM 438.24 65.39 C438.45,65.46 438.67,65.53 438.88,65.61 C444.72,67.60 450.40,69.78 451.50,70.46 C454.58,72.38 470.29,79.04 470.72,78.62 C471.28,78.05 459.72,69.56 453.74,66.15 C452.56,65.48 451.37,64.82 450.18,64.19 C457.73,67.77 464.31,71.43 467.30,73.96 C468.51,74.99 471.90,77.71 474.83,80.00 C477.76,82.30 479.93,84.40 479.65,84.69 C479.36,84.97 475.16,82.97 470.32,80.25 C458.77,73.75 448.47,68.96 438.24,65.39 ZM 332.00 70.43 C334.67,69.13 339.44,67.30 344.55,65.54 C333.75,69.42 323.38,74.64 313.76,81.13 C307.20,85.55 306.51,85.78 308.00,83.00 C308.59,81.90 309.39,81.00 309.79,80.99 C310.18,80.98 312.74,78.91 315.47,76.39 C319.99,72.23 320.59,71.64 331.57,66.01 C324.72,69.93 319.36,73.77 316.67,76.78 C315.17,78.46 315.96,78.28 321.17,75.72 C324.65,74.01 329.52,71.63 332.00,70.43 ZM 473.57 248.88 C473.87,248.60 474.11,248.35 474.26,248.13 C474.94,247.22 478.10,244.27 481.29,241.58 C487.59,236.26 494.80,227.92 491.44,229.83 C490.70,230.25 488.51,231.72 485.94,233.51 C486.57,232.97 486.95,232.56 487.26,232.16 C488.49,230.52 496.22,224.12 498.88,222.54 C503.81,219.62 491.57,233.49 481.19,242.61 C478.69,244.80 476.15,246.89 473.57,248.88 ZM 338.72 236.63 C332.49,234.08 326.14,231.14 319.66,227.81 C313.43,224.61 314.44,226.34 322.24,232.21 C333.67,240.81 351.88,249.17 367.92,253.46 C350.12,248.73 330.01,239.09 314.75,227.74 C308.64,223.20 306.68,221.00 308.75,221.00 C309.16,221.00 312.17,222.62 315.44,224.59 C321.64,228.32 332.73,234.03 338.72,236.63 ZM 486.86 71.58 C484.75,69.58 482.57,67.63 480.32,65.74 C481.87,66.99 483.43,68.28 485.00,69.61 C501.11,83.24 505.89,89.90 492.79,80.47 C468.83,63.23 446.42,51.90 424.39,46.21 C427.68,47.03 430.96,47.97 434.22,49.04 C446.73,53.14 466.33,62.47 476.99,69.40 C490.22,77.99 493.45,79.89 493.97,79.35 C494.26,79.05 491.06,75.55 486.86,71.58 ZM 451.64 243.45 C458.54,239.17 470.15,230.73 472.08,228.40 C472.78,227.55 468.22,229.45 461.93,232.61 C455.05,236.07 451.40,237.91 448.93,239.08 C450.44,238.32 454.72,236.20 459.00,234.08 C463.67,231.76 470.08,228.02 473.24,225.76 C476.40,223.49 479.24,221.90 479.55,222.22 C480.55,223.21 464.93,236.10 458.00,240.01 C455.83,241.24 453.71,242.38 451.64,243.45 ZM 421.12 237.47 C427.36,235.53 434.42,232.41 438.39,229.68 C442.92,226.56 441.96,226.24 435.83,228.84 C434.06,229.59 430.16,230.84 426.14,231.98 C430.63,230.55 435.25,228.57 440.83,225.85 C446.51,223.09 451.36,221.03 451.61,221.27 C453.10,222.77 434.53,233.01 423.50,236.76 C422.83,236.99 422.02,237.23 421.12,237.47 ZM 438.05 243.18 C427.34,246.63 416.57,248.67 405.63,249.29 C406.88,249.21 408.11,249.10 409.30,248.97 C418.75,247.94 429.59,245.69 438.05,243.18 ZM 408.50 239.90 C400.87,240.83 394.84,241.06 390.03,240.60 C394.69,240.79 404.24,240.31 410.85,239.58 C410.04,239.70 409.25,239.81 408.50,239.90 ZM 426.19 54.54 C408.31,49.40 389.58,48.32 371.62,51.37 C388.15,48.48 405.36,49.13 422.29,53.42 C423.50,53.73 424.81,54.10 426.19,54.54 ZM 416.00 32.86 C429.91,35.85 443.16,41.10 456.58,49.06 C443.34,41.38 429.36,35.73 416.00,32.86 ZM 419.14 233.78 C412.81,235.22 408.42,235.50 396.50,235.49 C393.59,235.49 390.91,235.45 388.37,235.35 C390.98,235.42 393.87,235.45 397.00,235.44 C406.29,235.41 413.00,235.00 419.14,233.78 ZM 351.76 63.16 C356.32,61.73 360.50,60.57 363.00,60.11 C366.52,59.46 369.96,58.92 373.33,58.50 C366.04,59.48 358.83,61.04 351.76,63.16 ZM 456.68 251.35 C448.05,255.44 439.15,258.60 429.24,261.18 C428.75,261.31 428.28,261.43 427.82,261.55 C428.26,261.43 428.72,261.31 429.20,261.19 C438.08,258.87 448.17,255.21 456.68,251.35 ZM 417.79 255.43 C423.59,254.25 430.98,252.10 437.45,249.82 C431.12,252.21 424.78,254.00 417.79,255.43 ZM 411.68 275.93 C419.94,274.80 429.05,272.44 437.54,269.30 C429.06,272.51 420.40,274.73 411.68,275.93 ZM 394.36 66.11 C391.09,66.03 387.81,66.12 384.54,66.38 C386.92,66.16 389.14,66.03 391.00,66.03 C392.02,66.03 393.15,66.06 394.36,66.11 ZM 478.95 238.42 C476.31,240.22 473.71,241.91 471.12,243.50 C474.35,241.42 476.91,239.76 478.95,238.42 ZM 452.31 262.63 C455.59,260.86 459.08,258.82 462.31,256.82 C459.02,258.91 455.69,260.85 452.31,262.63 ZM 396.43 249.48 C391.44,249.40 386.40,249.03 381.32,248.37 C386.44,249.00 391.55,249.38 396.43,249.48 ZM 386.50 70.98 C388.42,70.79 390.56,70.72 392.87,70.74 C392.74,70.74 392.62,70.74 392.50,70.74 C390.54,70.76 388.54,70.84 386.50,70.98 ZM 347.04 239.84 C345.18,239.17 343.32,238.47 341.44,237.73 C342.83,238.24 344.95,239.05 347.04,239.84 ZM 393.64 30.61 C401.88,30.83 410.16,31.60 416.00,32.86 C410.17,31.60 401.89,30.84 393.64,30.61 Z" fill="rgb(172,198,188, 0.00)"/>
<path d="M 0.00 149.50 L 0.00 0.00 L 417.00 0.00 L 834.00 0.00 L 834.00 149.50 L 834.00 299.00 L 417.00 299.00 L 0.00 299.00 L 0.00 149.50 ZM 411.68 275.93 C436.18,272.57 460.12,261.09 481.19,242.61 C491.57,233.49 503.81,219.62 498.88,222.54 C496.22,224.12 488.49,230.52 487.26,232.16 C486.06,233.76 483.62,235.46 469.20,244.74 C460.13,250.58 443.17,257.55 429.20,261.19 C418.21,264.05 416.31,264.24 398.00,264.35 C376.43,264.47 371.65,263.66 350.50,256.30 C341.15,253.04 319.14,242.28 313.16,238.04 C311.01,236.52 303.54,231.65 294.25,225.70 C290.98,223.61 293.59,227.51 298.75,232.42 C309.06,242.23 328.92,256.38 340.90,262.45 C363.22,273.76 390.12,278.88 411.68,275.93 ZM 417.79 255.43 C432.11,252.51 443.76,248.04 458.00,240.01 C464.93,236.10 480.55,223.21 479.55,222.22 C479.24,221.90 476.40,223.49 473.24,225.76 C470.08,228.02 463.67,231.76 459.00,234.08 C454.33,236.39 449.64,238.72 448.59,239.25 C440.97,243.10 423.56,247.41 409.30,248.97 C391.95,250.87 367.04,247.51 350.00,240.97 C346.98,239.81 342.91,238.27 340.97,237.55 C336.05,235.73 322.53,228.86 315.44,224.59 C312.17,222.62 309.16,221.00 308.75,221.00 C306.68,221.00 308.64,223.20 314.75,227.74 C332.53,240.96 356.87,251.86 376.50,255.38 C387.53,257.36 408.19,257.39 417.79,255.43 ZM 408.50 239.90 C413.45,239.30 420.20,237.89 423.50,236.76 C434.53,233.01 453.10,222.77 451.61,221.27 C451.36,221.03 446.51,223.09 440.83,225.85 C424.92,233.60 416.83,235.37 397.00,235.44 C386.38,235.48 378.54,235.02 375.00,234.16 C369.07,232.71 342.15,223.26 340.50,222.05 C338.68,220.70 336.00,220.05 336.00,220.94 C336.00,222.15 350.67,230.53 355.00,231.80 C356.93,232.36 361.32,233.96 364.76,235.34 C368.20,236.72 374.27,238.34 378.26,238.93 C382.24,239.51 386.62,240.16 388.00,240.36 C393.12,241.11 399.76,240.96 408.50,239.90 ZM 89.20 193.25 C90.03,192.29 91.71,186.32 92.93,180.00 C96.75,160.20 103.85,134.79 111.08,115.07 C113.51,108.43 112.72,107.23 105.35,106.35 C96.06,105.26 94.70,107.26 88.44,131.25 C86.33,139.36 84.30,146.00 83.94,146.00 C82.44,146.00 71.00,114.61 71.00,110.51 C71.00,106.13 57.52,104.14 52.94,107.84 L 50.67 109.69 L 53.96 119.09 C62.10,142.34 68.83,156.50 74.54,162.35 L 78.29 166.20 L 76.20 175.85 C72.40,193.48 72.40,191.84 76.17,193.47 C80.89,195.52 87.33,195.41 89.20,193.25 ZM 428.32 191.75 C429.35,190.99 431.94,183.84 434.88,173.64 C437.55,164.37 440.36,156.39 441.12,155.91 C441.88,155.42 445.78,155.02 449.80,155.02 C454.26,155.01 458.21,154.42 459.96,153.52 C463.74,151.57 467.00,147.31 467.00,144.34 C467.00,140.59 463.66,139.68 453.68,140.71 C447.82,141.31 444.93,141.26 444.67,140.55 C444.46,139.97 445.43,135.56 446.83,130.75 L 449.37 122.00 L 453.93 121.97 C462.56,121.91 473.46,120.03 476.00,118.16 C479.09,115.89 481.89,110.46 481.95,106.60 L 482.00 103.70 L 472.25 104.49 C466.89,104.91 456.78,105.54 449.80,105.88 C442.81,106.22 436.64,106.96 436.08,107.52 C435.52,108.08 433.91,113.93 432.50,120.52 C431.09,127.11 429.27,134.86 428.44,137.75 L 426.94 143.00 L 422.46 143.00 C418.29,143.00 417.84,143.26 416.27,146.57 C414.74,149.78 414.72,150.40 416.06,152.82 C417.01,154.50 418.58,155.62 420.28,155.82 C421.78,155.99 423.00,156.72 423.00,157.44 C423.00,158.16 420.98,164.67 418.50,171.89 C413.34,186.94 412.98,190.20 416.25,191.78 C419.36,193.28 426.26,193.26 428.32,191.75 ZM 669.86 190.26 C672.26,188.48 676.93,183.32 688.70,169.45 L 692.90 164.50 L 692.95 173.30 C693.03,186.92 696.34,191.00 707.33,191.00 C713.31,191.00 725.84,186.00 731.24,181.45 C732.84,180.10 734.49,179.00 734.89,179.00 C735.30,179.00 736.37,180.56 737.28,182.46 C740.95,190.16 751.41,193.63 761.43,190.48 C766.81,188.78 767.19,188.79 770.38,190.50 C776.80,193.96 793.36,190.51 798.97,184.54 C801.11,182.26 801.95,177.35 800.59,175.14 C799.49,173.36 795.49,173.79 790.47,176.22 C786.53,178.14 785.77,178.24 784.96,176.97 C782.45,173.00 782.92,170.98 800.42,110.04 C802.39,103.19 804.00,96.25 804.00,94.62 C804.00,90.06 801.49,88.00 795.92,88.00 C787.87,88.00 786.49,90.53 779.38,118.37 C776.38,130.10 774.03,137.44 773.15,137.77 C772.37,138.07 770.90,137.79 769.88,137.16 C765.03,134.13 754.23,137.45 747.12,144.16 C745.25,145.92 741.68,150.54 739.17,154.43 C732.54,164.70 725.46,171.81 719.02,174.67 C714.20,176.80 713.41,176.91 712.43,175.57 C711.82,174.74 711.48,172.58 711.67,170.78 C713.85,150.32 713.05,142.76 708.29,139.02 C701.02,133.30 689.97,139.35 679.61,154.73 C675.11,161.40 674.47,161.62 672.35,157.31 C668.44,149.33 659.45,151.28 646.73,162.84 C637.83,170.94 634.05,173.29 624.73,176.56 C618.51,178.73 616.31,179.09 613.73,178.35 C611.95,177.84 610.50,176.77 610.50,175.96 C610.50,174.53 612.11,173.89 624.09,170.58 C631.71,168.48 635.00,165.75 635.00,161.55 C635.00,159.73 634.44,157.82 633.75,157.29 C633.06,156.77 627.55,155.77 621.50,155.07 C610.87,153.84 607.79,152.88 609.40,151.27 C609.82,150.85 616.17,150.50 623.50,150.50 C636.12,150.50 636.97,150.37 639.34,148.15 C641.86,145.79 646.90,132.57 645.73,131.40 C645.38,131.05 643.62,131.28 641.82,131.91 C640.01,132.54 630.43,133.98 620.52,135.11 C595.16,138.00 589.00,141.03 589.00,150.62 C589.00,156.30 592.63,160.38 599.36,162.26 L 604.22 163.63 L 597.55 169.03 C592.02,173.52 590.32,174.39 587.54,174.15 C585.62,173.99 582.48,174.73 580.19,175.90 C576.72,177.67 576.04,177.75 574.98,176.48 C573.35,174.51 574.19,170.37 579.60,153.68 C582.15,145.82 583.82,139.02 583.48,137.93 C582.97,136.32 581.92,136.00 577.18,136.00 C569.73,136.01 566.18,138.24 562.06,145.54 C557.02,154.47 541.30,170.07 532.88,174.49 C529.03,176.52 525.24,177.92 524.44,177.62 C523.57,177.28 523.00,175.70 523.00,173.62 C523.00,170.99 524.30,168.45 528.50,162.91 C531.53,158.92 534.00,154.90 534.00,153.98 C534.00,151.49 531.37,149.56 522.53,145.54 C513.05,141.23 511.00,139.55 510.99,136.10 C510.98,127.77 506.28,121.00 500.53,121.00 C497.60,121.00 496.61,121.57 494.93,124.25 C492.84,127.58 492.80,129.66 494.55,144.00 C495.04,147.94 494.64,149.28 491.34,154.79 C486.96,162.12 479.59,170.04 472.50,175.01 C468.85,177.58 467.41,179.27 467.18,181.32 C466.55,186.80 471.01,188.58 477.30,185.36 C485.34,181.25 498.85,168.44 505.89,158.26 C508.08,155.09 508.19,155.05 511.06,156.53 C512.68,157.37 514.00,158.24 514.00,158.48 C514.00,158.71 512.71,160.83 511.13,163.20 C507.12,169.23 505.70,174.32 506.23,180.78 C506.62,185.51 507.18,186.77 510.00,189.29 C513.12,192.08 513.68,192.22 519.90,191.75 C528.00,191.13 538.34,186.22 548.11,178.33 C551.75,175.40 555.01,173.00 555.36,173.00 C555.71,173.00 556.00,175.37 556.00,178.28 C556.00,187.40 559.61,190.20 571.24,190.11 C577.96,190.05 583.99,187.97 588.23,184.25 C589.80,182.87 590.31,183.05 593.92,186.31 C596.13,188.30 599.57,190.24 601.69,190.69 C608.33,192.10 620.63,191.31 628.27,188.99 C638.33,185.93 641.69,183.98 647.97,177.58 C650.97,174.51 653.74,172.00 654.13,172.00 C654.51,172.00 654.19,174.36 653.42,177.25 C651.40,184.85 651.64,186.80 655.05,190.20 C657.78,192.93 658.57,193.20 662.66,192.73 C665.17,192.45 668.41,191.34 669.86,190.26 ZM 142.24 190.58 C144.30,189.84 147.17,188.40 148.63,187.37 C150.09,186.34 151.92,185.05 152.69,184.50 C153.72,183.77 154.38,183.98 155.10,185.25 C157.22,188.97 164.57,186.91 172.60,180.35 C174.86,178.51 176.96,177.00 177.27,177.00 C177.59,177.00 178.13,178.30 178.48,179.90 C179.35,183.85 184.76,189.57 188.90,190.91 C193.84,192.50 200.41,192.25 204.47,190.31 C207.83,188.71 208.07,188.72 209.35,190.47 C210.53,192.08 211.67,192.24 218.28,191.74 C230.50,190.81 239.92,185.81 253.04,173.26 C258.84,167.72 264.47,161.55 265.54,159.55 C267.07,156.71 268.03,155.98 269.90,156.21 C274.19,156.73 274.57,159.14 271.12,164.05 C264.88,172.97 264.79,185.32 270.93,190.17 C273.06,191.84 274.63,192.13 280.08,191.82 C290.18,191.26 301.04,185.44 313.09,174.13 C318.29,169.25 323.44,163.51 324.52,161.38 C325.61,159.24 326.60,157.32 326.73,157.10 C327.15,156.38 335.11,162.32 337.08,164.82 C339.60,168.03 339.52,172.07 336.86,175.45 C333.37,179.89 331.17,180.17 325.38,176.89 C319.37,173.50 317.45,173.30 316.04,175.93 C313.34,180.96 315.64,184.84 323.71,188.89 C328.68,191.38 334.67,191.58 341.68,189.50 C351.14,186.69 355.94,180.29 355.98,170.41 C356.01,162.22 352.97,157.71 341.52,149.00 C335.50,144.43 331.57,140.72 331.44,139.50 C330.40,130.17 329.74,127.44 327.89,124.85 C321.32,115.62 313.02,121.66 314.34,134.69 C314.66,137.89 315.23,141.99 315.59,143.81 C316.99,150.89 304.28,169.04 294.27,174.25 C286.78,178.14 285.29,178.40 284.02,176.04 C282.70,173.58 284.91,168.31 290.48,160.64 C294.12,155.61 294.91,152.00 292.75,150.21 C292.06,149.64 287.49,147.45 282.59,145.34 C277.70,143.23 273.35,140.82 272.93,140.00 C272.51,139.18 271.65,135.91 271.01,132.74 C269.51,125.26 266.05,121.00 261.48,121.00 C254.66,121.00 251.38,130.18 254.57,140.31 L 256.33 145.89 L 253.16 152.33 C251.42,155.87 247.08,161.91 243.52,165.75 C238.33,171.36 235.89,173.17 231.09,174.97 C221.59,178.52 221.29,177.47 226.49,158.94 C231.83,139.89 231.07,136.00 221.95,136.00 C217.37,136.00 217.17,136.13 215.64,139.94 C214.78,142.10 212.89,148.51 211.46,154.19 C207.16,171.19 204.81,175.00 198.59,175.00 C196.96,175.00 195.44,174.07 194.36,172.43 C192.74,169.96 192.82,169.33 196.37,156.68 C200.33,142.51 200.55,140.90 198.96,137.93 C198.18,136.46 196.86,136.00 193.45,136.00 C186.98,136.00 185.23,137.52 182.96,145.16 C180.50,153.39 174.68,162.27 167.33,168.98 C164.26,171.79 161.57,173.91 161.36,173.69 C161.14,173.47 161.70,170.43 162.60,166.92 C168.41,144.24 153.47,128.84 134.10,137.54 C130.71,139.06 126.54,141.90 124.83,143.85 C116.77,153.02 112.84,169.06 116.37,178.31 C120.51,189.14 131.57,194.38 142.24,190.58 ZM 586.57 125.87 C588.49,122.15 588.81,114.41 587.11,112.71 C586.44,112.04 583.86,111.50 581.37,111.50 C574.10,111.50 572.05,116.25 575.97,123.95 C578.05,128.02 579.10,128.79 582.72,128.92 C584.25,128.98 585.46,128.01 586.57,125.87 ZM 450.58 84.09 C449.63,83.04 447.65,81.56 446.18,80.81 C444.70,80.05 440.58,77.89 437.00,76.01 C433.42,74.12 428.02,71.76 425.00,70.74 C418.47,68.56 400.14,66.01 391.00,66.03 C383.24,66.04 369.21,68.25 363.12,70.43 C360.72,71.29 357.93,72.00 356.92,72.00 C353.69,72.00 335.06,83.40 336.29,84.62 C336.57,84.90 339.52,83.75 342.86,82.07 C355.95,75.46 375.98,70.89 392.50,70.74 C406.96,70.61 427.46,75.06 441.00,81.27 C447.99,84.48 450.92,85.73 451.90,85.92 C452.13,85.96 451.53,85.14 450.58,84.09 ZM 294.51 79.34 C308.59,66.48 333.18,52.77 351.50,47.57 C398.92,34.11 442.46,44.25 492.79,80.47 C505.89,89.90 501.11,83.24 485.00,69.61 C461.19,49.46 439.53,37.92 416.00,32.86 C403.80,30.23 381.01,29.75 370.00,31.89 C352.92,35.21 328.55,45.90 315.80,55.68 C304.05,64.68 287.00,81.60 287.00,84.26 C287.00,85.17 290.99,82.55 294.51,79.34 ZM 313.76 81.13 C344.60,60.33 383.18,52.57 418.82,60.02 C436.09,63.62 451.55,69.70 470.32,80.25 C475.16,82.97 479.36,84.97 479.65,84.69 C479.93,84.40 477.76,82.30 474.83,80.00 C471.90,77.71 468.51,74.99 467.30,73.96 C460.54,68.24 435.35,56.73 422.29,53.42 C393.74,46.18 364.39,49.30 338.85,62.30 C320.68,71.55 320.83,71.45 315.47,76.39 C312.74,78.91 310.18,80.98 309.79,80.99 C309.39,81.00 308.59,81.90 308.00,83.00 C306.51,85.78 307.20,85.55 313.76,81.13 ZM 752.59 173.82 C750.42,170.72 750.60,167.53 753.22,162.27 C756.20,156.31 761.41,151.79 764.85,152.19 C767.28,152.47 767.52,152.92 767.78,157.50 C768.24,165.60 763.22,173.48 756.34,175.46 C754.77,175.91 753.73,175.45 752.59,173.82 ZM 132.66 173.93 C131.01,171.57 131.47,165.10 133.59,160.90 C135.38,157.34 141.64,152.00 144.01,152.00 C149.20,152.00 150.22,160.74 145.99,169.03 C142.53,175.81 135.73,178.31 132.66,173.93 Z" fill="rgb(253,254,254, 0.00)"/>
</g>
</svg>
