<svg xmlns="http://www.w3.org/2000/svg" width="212" height="246" viewBox="0 0 212 246">
<g>
<path d="M 79.40 167.75 C78.19,169.63 77.10,169.99 72.73,169.93 C66.59,169.85 63.00,168.39 63.00,165.96 C63.00,164.22 66.38,147.52 67.60,143.21 C68.11,141.42 67.44,140.10 64.54,137.21 C62.50,135.17 59.32,130.80 57.48,127.50 C51.58,116.91 40.05,86.76 40.01,81.83 C39.99,79.47 46.17,77.67 52.26,78.25 C58.35,78.84 60.21,80.88 62.00,88.91 C64.48,100.09 73.04,121.41 74.23,119.40 C74.53,118.90 76.68,111.30 79.02,102.50 C81.36,93.70 84.12,84.81 85.16,82.75 L 87.04 79.00 L 93.77 79.02 C97.47,79.02 101.13,79.43 101.90,79.91 C103.77,81.10 103.14,83.94 96.54,104.00 C90.91,121.11 86.70,136.98 83.00,155.00 C81.81,160.77 80.19,166.51 79.40,167.75 ZM 125.30 166.22 C123.48,168.23 114.77,168.68 111.75,166.92 C109.14,165.40 109.56,162.38 114.42,147.70 C114.69,146.86 114.96,146.07 115.21,145.32 C118.66,134.91 119.61,132.02 118.59,130.81 C118.12,130.26 117.24,130.06 116.00,129.65 C112.17,128.39 111.35,126.27 112.44,120.46 C113.02,117.40 113.39,117.13 118.04,116.49 C121.43,116.03 123.36,115.20 124.05,113.91 C124.60,112.87 126.62,104.93 128.53,96.26 C130.86,85.69 132.56,80.09 133.69,79.25 C134.75,78.46 138.75,78.00 144.44,78.01 C149.42,78.01 159.26,77.49 166.30,76.85 C175.33,76.03 179.40,76.00 180.15,76.75 C182.70,79.30 176.36,90.10 171.09,92.21 C169.66,92.78 163.61,93.52 157.63,93.87 L 146.76 94.50 L 143.91 104.00 C142.34,109.22 141.05,113.86 141.03,114.30 C141.01,114.75 145.93,114.80 151.96,114.41 L 162.92 113.72 L 164.13 116.39 C165.18,118.68 165.06,119.44 163.33,121.78 C159.08,127.51 155.50,129.00 145.92,129.00 C138.43,129.00 137.06,129.26 136.59,130.75 C136.29,131.71 133.99,139.69 131.48,148.47 C128.97,157.26 126.18,165.24 125.30,166.22 Z" fill="rgb(23,65,126)"/>
<path d="M 129.17 219.53 C119.12,221.28 103.37,221.25 93.00,219.46 C80.80,217.35 64.38,210.36 51.84,201.94 C45.19,197.47 29.00,184.30 29.00,183.35 C29.00,183.05 30.91,183.98 33.25,185.42 C41.08,190.25 69.43,203.74 76.00,205.77 C93.06,211.03 105.07,212.48 120.02,211.09 C139.05,209.31 159.43,202.05 174.06,191.84 C177.48,189.45 182.48,186.03 185.17,184.24 L 190.06 180.98 L 188.51 183.98 C186.63,187.62 174.03,198.55 164.50,204.81 C154.45,211.42 139.15,217.79 129.17,219.53 ZM 34.14 52.83 C24.94,59.99 26.84,56.10 37.22,46.54 C49.67,35.08 65.53,26.48 82.82,21.81 C93.95,18.80 117.12,18.80 128.73,21.80 C149.49,27.16 169.44,38.38 182.50,52.05 C185.25,54.93 187.05,57.04 186.50,56.75 C185.95,56.45 181.87,54.02 177.44,51.35 C169.60,46.64 160.02,41.93 147.27,36.54 C143.84,35.09 136.19,32.80 130.27,31.46 C112.00,27.32 90.14,28.35 71.50,34.23 C67.65,35.45 63.83,36.96 63.00,37.59 C62.17,38.22 60.15,39.05 58.51,39.45 C56.86,39.84 51.85,42.37 47.37,45.08 C42.89,47.79 38.90,50.00 38.51,50.00 C38.11,50.00 36.15,51.27 34.14,52.83 ZM 126.63 203.99 C120.67,204.96 100.04,205.16 95.00,204.30 C82.88,202.24 65.89,195.53 54.87,188.45 C43.93,181.43 45.45,180.62 58.50,186.51 C78.78,195.66 90.83,198.45 110.00,198.43 C130.69,198.41 143.25,195.30 162.74,185.40 C168.57,182.44 173.53,180.20 173.76,180.42 C174.67,181.33 161.98,190.30 153.78,194.55 C143.96,199.63 135.64,202.53 126.63,203.99 ZM 171.11 57.64 C173.08,60.01 170.06,59.10 160.50,54.46 C142.35,45.64 125.87,41.85 105.50,41.82 C88.89,41.80 82.24,43.14 60.00,51.01 C58.08,51.69 53.84,53.61 50.60,55.28 C42.81,59.27 44.27,57.23 53.82,50.78 C81.17,32.30 120.12,30.00 150.24,45.08 C157.42,48.68 169.92,56.20 171.11,57.64 ZM 122.52 190.53 C106.98,193.50 90.33,191.12 75.75,183.84 C69.06,180.50 68.30,179.49 73.98,181.49 C78.20,182.98 87.08,185.20 95.80,186.94 C106.84,189.15 123.74,187.78 137.36,183.58 C141.56,182.28 145.00,181.40 145.00,181.63 C145.00,182.95 129.00,189.29 122.52,190.53 ZM 80.81 56.08 C77.34,57.21 72.93,58.53 71.00,59.02 L 67.50 59.90 L 70.00 57.97 C74.38,54.60 88.27,50.19 97.87,49.12 C109.79,47.79 122.68,49.26 132.33,53.06 C138.27,55.40 138.97,55.89 136.40,55.94 C134.69,55.97 131.99,55.59 130.40,55.10 C128.80,54.60 123.52,53.63 118.66,52.92 C108.00,51.39 90.79,52.82 80.81,56.08 Z" fill="rgb(117,169,113)"/>
<path d="M 118.31 49.48 C129.78,50.98 141.10,54.59 150.44,60.10 C156.24,63.52 152.97,63.58 144.74,60.21 C134.42,55.98 128.72,54.39 118.66,52.93 C118.19,52.86 117.72,52.80 117.25,52.74 C117.73,52.80 118.20,52.86 118.66,52.92 C123.52,53.63 128.80,54.60 130.40,55.10 C131.99,55.59 134.69,55.97 136.40,55.94 C138.97,55.89 138.27,55.40 132.33,53.06 C128.15,51.42 123.37,50.21 118.31,49.48 ZM 45.90 59.18 C37.37,64.59 35.53,65.20 39.04,61.45 C45.60,54.48 58.01,46.79 71.00,41.68 C84.84,36.22 101.25,34.06 116.36,35.59 C94.36,33.57 71.63,38.75 53.82,50.78 C44.27,57.23 42.81,59.27 50.60,55.28 C53.84,53.61 58.08,51.69 60.00,51.01 C62.30,50.19 64.44,49.45 66.44,48.77 C59.33,51.38 53.36,54.45 45.90,59.18 ZM 34.14 52.83 C36.15,51.27 38.11,50.00 38.51,50.00 C38.90,50.00 42.89,47.79 47.37,45.08 C47.72,44.87 48.07,44.66 48.42,44.45 C42.66,47.90 35.90,52.51 31.15,56.43 C20.91,64.89 20.00,65.50 20.00,64.01 C20.00,62.17 38.63,44.11 45.27,39.50 C49.97,36.24 54.73,33.38 59.55,30.91 C51.35,35.21 43.81,40.48 37.22,46.54 C26.84,56.10 24.94,59.99 34.14,52.83 ZM 53.17 195.72 C44.93,191.76 36.88,187.66 33.25,185.42 C30.91,183.98 29.00,183.05 29.00,183.35 C29.00,184.12 39.62,192.91 47.19,198.60 C44.23,196.57 41.77,194.91 41.12,194.50 C38.06,192.61 26.50,183.17 24.08,180.59 C19.48,175.68 22.75,176.99 34.10,184.59 C39.57,188.25 46.38,192.19 53.17,195.72 ZM 125.20 189.96 C124.81,190.04 124.42,190.12 124.03,190.19 C131.19,188.41 145.00,182.86 145.00,181.63 C145.00,181.40 141.56,182.28 137.36,183.58 C135.32,184.20 133.20,184.77 131.05,185.27 C132.33,184.89 133.49,184.48 134.50,184.03 C136.70,183.05 139.62,181.90 141.00,181.49 C142.38,181.08 146.13,179.42 149.35,177.80 C156.07,174.44 157.65,174.66 152.82,178.29 C146.12,183.32 135.27,187.91 125.20,189.96 ZM 166.51 38.74 C168.85,40.30 171.18,41.95 173.50,43.70 C182.92,50.80 194.45,61.35 193.24,61.75 C192.70,61.93 186.66,58.35 179.81,53.79 C173.12,49.33 166.75,45.58 160.49,42.42 C167.04,45.50 172.57,48.43 177.44,51.35 C181.87,54.02 185.95,56.45 186.50,56.75 C187.05,57.04 185.25,54.93 182.50,52.05 C177.93,47.26 172.51,42.78 166.51,38.74 ZM 115.49 187.67 C108.23,188.25 101.29,188.04 95.80,186.94 C87.08,185.20 78.20,182.98 73.98,181.49 C68.30,179.49 69.06,180.50 75.75,183.84 C76.20,184.07 76.65,184.29 77.11,184.50 C69.20,181.12 60.46,176.87 60.17,176.02 C59.72,174.65 60.58,174.73 63.80,176.38 C69.29,179.18 87.71,185.34 94.50,186.65 C100.55,187.81 108.23,188.11 115.49,187.67 ZM 84.26 195.82 C76.45,193.97 68.47,191.01 58.50,186.51 C45.45,180.62 43.93,181.43 54.87,188.45 C60.00,191.75 66.43,194.97 73.07,197.68 C67.07,195.30 61.46,192.66 57.65,190.27 C55.53,188.94 51.71,186.68 49.15,185.26 C43.67,182.20 38.00,177.84 38.00,176.67 C38.00,176.22 42.61,178.30 48.25,181.30 C60.27,187.70 73.18,192.90 84.26,195.82 ZM 80.81 56.08 C84.70,54.81 89.68,53.82 94.95,53.17 C84.75,54.60 74.64,57.57 66.69,61.76 C66.42,61.90 66.15,62.04 65.90,62.18 C61.64,64.42 60.45,65.04 60.12,64.74 C60.00,64.62 60.00,64.36 60.01,64.01 C60.01,63.95 60.01,63.89 60.01,63.83 C60.02,62.54 72.16,55.00 74.23,55.00 C74.80,55.00 78.29,53.91 81.99,52.57 C87.59,50.55 93.84,49.34 100.36,48.88 C99.53,48.95 98.69,49.03 97.87,49.12 C88.27,50.19 74.38,54.60 70.00,57.97 L 67.50 59.90 L 71.00 59.02 C72.93,58.53 77.34,57.21 80.81,56.08 ZM 184.50 188.70 C186.51,186.71 187.96,185.03 188.51,183.98 L 190.06 180.98 L 185.17 184.24 C183.02,185.67 179.41,188.14 176.30,190.29 C179.18,188.16 182.30,185.62 186.17,182.34 C198.00,172.32 199.01,172.67 189.56,183.49 C188.19,185.06 186.46,186.84 184.50,188.70 ZM 93.84 20.04 C102.97,18.86 112.16,19.00 121.31,20.45 C113.03,19.41 102.57,19.27 93.84,20.04 ZM 76.51 45.55 C83.91,43.40 89.42,42.43 96.02,42.04 C89.38,42.62 82.86,43.78 76.51,45.55 ZM 125.49 43.26 C133.99,44.55 142.07,46.74 150.28,49.96 C142.10,46.88 133.79,44.64 125.49,43.26 ZM 144.47 214.94 C151.55,212.16 158.85,208.52 164.50,204.81 C165.76,203.98 167.08,203.07 168.42,202.11 C166.73,203.34 165.09,204.48 163.53,205.50 C158.46,208.81 151.39,212.25 144.47,214.94 ZM 135.66 23.81 C143.55,26.26 151.38,29.71 159.08,34.13 C151.77,29.97 143.83,26.45 135.66,23.81 ZM 166.93 196.33 C162.37,198.93 157.43,201.27 152.28,203.29 C154.43,202.42 156.57,201.48 158.73,200.47 C161.86,199.00 164.50,197.68 166.93,196.33 ZM 128.92 197.19 C123.16,198.06 117.05,198.42 110.00,198.43 C108.01,198.43 106.09,198.40 104.24,198.34 C105.84,198.37 107.58,198.39 109.50,198.39 C116.79,198.41 123.05,198.06 128.92,197.19 ZM 70.07 211.98 C78.09,215.59 86.20,218.28 93.00,219.46 C85.97,218.24 78.02,215.62 70.07,211.98 ZM 168.14 57.96 C171.35,59.26 172.29,59.20 171.32,57.89 C172.85,59.37 171.86,59.55 168.14,57.96 ZM 148.12 36.90 C144.53,35.51 140.94,34.31 137.30,33.26 C141.30,34.39 145.12,35.63 147.27,36.54 C147.55,36.66 147.84,36.78 148.12,36.90 ZM 93.93 190.17 C98.73,191.18 103.61,191.72 108.48,191.77 C103.58,191.77 98.82,191.24 93.93,190.17 ZM 167.69 55.13 C165.81,53.91 163.36,52.41 160.77,50.89 C161.25,51.17 161.74,51.45 162.24,51.75 C164.41,53.01 166.23,54.15 167.69,55.13 ZM 76.00 205.76 C79.87,206.96 83.48,207.96 86.93,208.78 C83.49,207.96 79.87,206.96 76.00,205.77 C75.75,205.69 75.48,205.60 75.18,205.50 C75.46,205.59 75.73,205.68 76.00,205.76 Z" fill=""/>
<path d="M 0.00 123.00 L 0.00 0.00 L 106.00 0.00 L 212.00 0.00 L 212.00 123.00 L 212.00 246.00 L 106.00 246.00 L 0.00 246.00 L 0.00 123.00 ZM 129.17 219.53 C138.74,217.86 154.39,211.47 163.53,205.50 C172.29,199.78 183.92,189.94 189.56,183.49 C199.01,172.67 198.00,172.32 186.17,182.34 C174.81,191.96 169.85,195.24 158.73,200.47 C146.09,206.41 133.69,209.81 120.02,211.09 C105.05,212.48 92.97,211.02 76.00,205.76 C65.62,202.54 46.44,192.85 34.10,184.59 C22.75,176.99 19.48,175.68 24.08,180.59 C26.50,183.17 38.06,192.61 41.12,194.50 C42.01,195.05 46.23,197.92 50.50,200.87 C63.99,210.20 80.04,217.22 93.00,219.46 C103.37,221.25 119.12,221.28 129.17,219.53 ZM 126.63 203.99 C135.64,202.53 143.96,199.63 153.78,194.55 C161.98,190.30 174.67,181.33 173.76,180.42 C173.53,180.20 168.57,182.44 162.74,185.40 C143.02,195.42 130.63,198.44 109.50,198.39 C97.64,198.36 92.69,197.91 85.85,196.22 C74.43,193.40 60.85,188.01 48.25,181.30 C42.61,178.30 38.00,176.22 38.00,176.67 C38.00,177.84 43.67,182.20 49.15,185.26 C51.71,186.68 55.53,188.94 57.65,190.27 C66.32,195.71 84.37,202.50 95.00,204.30 C100.04,205.16 120.67,204.96 126.63,203.99 ZM 125.20 189.96 C135.27,187.91 146.12,183.32 152.82,178.29 C157.65,174.66 156.07,174.44 149.35,177.80 C146.13,179.42 142.38,181.08 141.00,181.49 C139.62,181.90 136.70,183.05 134.50,184.03 C126.15,187.77 106.88,189.03 94.50,186.65 C87.71,185.34 69.29,179.18 63.80,176.38 C60.58,174.73 59.72,174.65 60.17,176.02 C60.60,177.30 80.08,186.22 87.20,188.40 C100.02,192.33 111.30,192.79 125.20,189.96 ZM 79.40 167.75 C80.19,166.51 81.81,160.77 83.00,155.00 C86.70,136.98 90.91,121.11 96.54,104.00 C103.14,83.94 103.77,81.10 101.90,79.91 C101.13,79.43 97.47,79.02 93.77,79.02 L 87.04 79.00 L 85.16 82.75 C84.12,84.81 81.36,93.70 79.02,102.50 C76.68,111.30 74.53,118.90 74.23,119.40 C73.04,121.41 64.48,100.09 62.00,88.91 C60.21,80.88 58.35,78.84 52.26,78.25 C46.17,77.67 39.99,79.47 40.01,81.83 C40.05,86.76 51.58,116.91 57.48,127.50 C59.32,130.80 62.50,135.17 64.54,137.21 C67.44,140.10 68.11,141.42 67.60,143.21 C66.38,147.52 63.00,164.22 63.00,165.96 C63.00,168.39 66.59,169.85 72.73,169.93 C77.10,169.99 78.19,169.63 79.40,167.75 ZM 125.30 166.22 C126.18,165.24 128.97,157.26 131.48,148.47 C133.99,139.69 136.29,131.71 136.59,130.75 C137.06,129.26 138.43,129.00 145.92,129.00 C155.50,129.00 159.08,127.51 163.33,121.78 C165.06,119.44 165.18,118.68 164.13,116.39 L 162.92 113.72 L 151.96 114.41 C145.93,114.80 141.01,114.75 141.03,114.30 C141.05,113.86 142.34,109.22 143.91,104.00 L 146.76 94.50 L 157.63 93.87 C163.61,93.52 169.66,92.78 171.09,92.21 C176.36,90.10 182.70,79.30 180.15,76.75 C179.40,76.00 175.33,76.03 166.30,76.85 C159.26,77.49 149.42,78.01 144.44,78.01 C138.75,78.00 134.75,78.46 133.69,79.25 C132.56,80.09 130.86,85.69 128.53,96.26 C126.62,104.93 124.60,112.87 124.05,113.91 C123.36,115.20 121.43,116.03 118.04,116.49 C113.39,117.13 113.02,117.40 112.44,120.46 C111.35,126.27 112.17,128.39 116.00,129.65 C120.16,131.02 120.25,130.07 114.42,147.70 C109.56,162.38 109.14,165.40 111.75,166.92 C114.77,168.68 123.48,168.23 125.30,166.22 ZM 31.15 56.43 C39.50,49.54 54.04,40.51 58.51,39.45 C60.15,39.05 62.17,38.22 63.00,37.59 C63.83,36.96 67.65,35.45 71.50,34.23 C90.14,28.35 112.00,27.32 130.27,31.46 C147.05,35.27 162.34,42.16 179.81,53.79 C186.66,58.35 192.70,61.93 193.24,61.75 C194.45,61.35 182.92,50.80 173.50,43.70 C132.30,12.62 86.21,11.12 45.27,39.50 C38.63,44.11 20.00,62.17 20.00,64.01 C20.00,65.50 20.91,64.89 31.15,56.43 ZM 66.69 61.76 C81.04,54.21 102.42,50.58 118.66,52.93 C128.72,54.39 134.42,55.98 144.74,60.21 C152.97,63.58 156.24,63.52 150.44,60.10 C130.69,48.45 102.13,45.31 81.99,52.57 C78.29,53.91 74.80,55.00 74.23,55.00 C72.16,55.00 60.02,62.54 60.01,63.83 C60.00,65.34 59.71,65.43 66.69,61.76 ZM 45.90 59.18 C56.25,52.63 63.71,49.25 75.34,45.88 C103.38,37.74 134.97,41.35 164.01,56.00 C175.55,61.83 174.29,58.80 162.24,51.75 C146.38,42.46 137.63,39.09 122.65,36.46 C105.92,33.52 86.78,35.45 71.00,41.68 C58.01,46.79 45.60,54.48 39.04,61.45 C35.53,65.20 37.37,64.59 45.90,59.18 Z" fill="rgb(253,254,253, 0.00)"/>
</g>
</svg>
