<svg width="153" height="112" viewBox="0 0 153 112" fill="none" xmlns="http://www.w3.org/2000/svg">
<ellipse cx="72.9543" cy="24.5282" rx="25.965" ry="24.5282" fill="#983030"/>
<path d="M61.0493 22.656C62.0293 22.616 62.7493 22.406 63.2093 22.026C63.6693 21.626 63.8993 21.066 63.8993 20.346C63.8993 19.806 63.7993 18.736 63.5993 17.136C63.5793 16.976 63.5193 16.466 63.4193 15.606C63.3193 14.726 63.2693 13.936 63.2693 13.236C63.2693 11.536 63.7893 10.216 64.8293 9.27604C65.8693 8.31604 67.2593 7.83604 68.9993 7.83604H71.1593V12.036H69.9893C69.3493 12.036 68.8893 12.176 68.6093 12.456C68.3293 12.736 68.1893 13.166 68.1893 13.746C68.1893 14.186 68.2693 15.186 68.4293 16.746C68.6093 18.686 68.6993 19.956 68.6993 20.556C68.6993 21.656 68.4293 22.566 67.8893 23.286C67.3693 24.006 66.5693 24.466 65.4893 24.666V24.726C66.5693 24.946 67.3693 25.416 67.8893 26.136C68.4293 26.836 68.6993 27.746 68.6993 28.866C68.6993 29.466 68.6093 30.736 68.4293 32.676C68.2693 34.196 68.1893 35.186 68.1893 35.646C68.1893 36.226 68.3293 36.656 68.6093 36.936C68.8893 37.236 69.3493 37.386 69.9893 37.386H71.1593V41.586H68.9993C67.2593 41.586 65.8693 41.106 64.8293 40.146C63.7893 39.206 63.2693 37.876 63.2693 36.156C63.2693 35.456 63.3193 34.676 63.4193 33.816C63.5193 32.936 63.5793 32.416 63.5993 32.256C63.7993 30.656 63.8993 29.586 63.8993 29.046C63.8993 28.366 63.6693 27.826 63.2093 27.426C62.7493 27.006 62.0293 26.776 61.0493 26.736V22.656ZM85.53 26.736C84.55 26.776 83.83 27.006 83.37 27.426C82.91 27.826 82.68 28.366 82.68 29.046C82.68 29.586 82.78 30.656 82.98 32.256C83 32.416 83.06 32.936 83.16 33.816C83.26 34.676 83.31 35.456 83.31 36.156C83.31 37.876 82.79 39.206 81.75 40.146C80.71 41.106 79.32 41.586 77.58 41.586H75.42V37.386H76.59C77.23 37.386 77.69 37.236 77.97 36.936C78.25 36.656 78.39 36.226 78.39 35.646C78.39 35.186 78.31 34.196 78.15 32.676C77.97 30.736 77.88 29.466 77.88 28.866C77.88 27.746 78.14 26.836 78.66 26.136C79.2 25.416 80.01 24.946 81.09 24.726V24.666C80.01 24.466 79.2 24.006 78.66 23.286C78.14 22.566 77.88 21.656 77.88 20.556C77.88 19.956 77.97 18.686 78.15 16.746C78.31 15.186 78.39 14.186 78.39 13.746C78.39 13.166 78.25 12.736 77.97 12.456C77.69 12.176 77.23 12.036 76.59 12.036H75.42V7.83604H77.58C79.32 7.83604 80.71 8.31604 81.75 9.27604C82.79 10.216 83.31 11.536 83.31 13.236C83.31 13.936 83.26 14.726 83.16 15.606C83.06 16.466 83 16.976 82.98 17.136C82.78 18.736 82.68 19.806 82.68 20.346C82.68 21.066 82.91 21.626 83.37 22.026C83.83 22.406 84.55 22.616 85.53 22.656V26.736Z" fill="white"/>
<rect width="76.7706" height="22.6328" rx="6" transform="matrix(0.887524 0.460762 -0.570939 0.820992 12.9219 30.6371)" fill="#6AA964"/>
<rect width="50.3966" height="30.2447" rx="6" transform="matrix(0.887524 0.460762 -0.570939 0.820992 80.917 63.9485)" fill="#6AA964"/>
<path d="M75.5464 67.7566C75.6483 66.2381 76.366 64.8045 77.5736 63.7077L121.134 24.1416C123.464 22.0247 127.167 21.544 130.153 22.9708L143.097 29.1549C147.58 31.2967 148.373 36.5811 144.661 39.5722L87.2957 85.7916C82.3654 89.764 74.293 86.4369 74.6851 80.594L75.5464 67.7566Z" fill="#164484"/>
</svg>
