<svg width="594" height="150" viewBox="0 0 594 150" fill="none" xmlns="http://www.w3.org/2000/svg">
<path d="M164.737 124.926C165.055 120.05 165.214 114.909 165.214 109.503C165.214 104.097 165.055 99.9453 164.737 97.048L162.935 96.889C162.864 96.3237 162.829 95.8467 162.829 95.458C162.829 95.034 162.882 94.5217 162.988 93.921C164.225 93.9563 165.656 93.974 167.281 93.974C168.906 93.974 170.32 93.9563 171.521 93.921C171.627 94.451 171.68 94.928 171.68 95.352C171.68 95.7407 171.645 96.253 171.574 96.889L169.56 97.048C169.313 100.369 169.189 104.945 169.189 110.775C169.189 116.57 169.313 120.969 169.56 123.972C170.655 124.078 172.245 124.131 174.33 124.131C176.45 124.131 178.058 124.043 179.153 123.866L179.312 120.262C179.913 120.156 180.443 120.103 180.902 120.103C181.397 120.103 181.856 120.121 182.28 120.156C182.386 122.841 182.545 125.456 182.757 128L182.492 128.265C180.831 128.088 177.457 128 172.369 128C167.281 128 164.136 128.018 162.935 128.053C162.829 127.523 162.776 127.064 162.776 126.675C162.776 126.251 162.811 125.721 162.882 125.085L164.737 124.926ZM203.393 109.715L203.181 117.347C203.181 119.75 203.322 122.099 203.605 124.396L205.566 124.555C205.637 125.12 205.672 125.65 205.672 126.145C205.672 126.604 205.619 127.099 205.513 127.629C204.488 127.664 202.492 127.841 199.524 128.159C199.277 127.488 199.082 126.657 198.941 125.668C196.185 127.753 193.8 128.795 191.786 128.795C189.807 128.795 188.253 128.159 187.122 126.887C186.027 125.58 185.479 123.742 185.479 121.375C185.479 118.972 186.221 117.082 187.705 115.704C189.224 114.326 191.115 113.637 193.376 113.637C195.673 113.637 197.634 114.061 199.259 114.909C199.294 114.52 199.312 113.884 199.312 113.001C199.312 110.386 198.941 108.514 198.199 107.383C197.492 106.217 196.397 105.634 194.913 105.634C193.429 105.634 192.351 105.917 191.68 106.482C191.963 107.047 192.104 107.754 192.104 108.602C192.104 109.45 191.821 110.192 191.256 110.828C190.726 111.429 189.966 111.729 188.977 111.729C187.316 111.729 186.486 110.757 186.486 108.814C186.486 106.835 187.228 105.316 188.712 104.256C190.196 103.196 192.281 102.666 194.966 102.666C197.651 102.666 199.718 103.302 201.167 104.574C202.651 105.811 203.393 107.524 203.393 109.715ZM199.047 118.248C197.598 117.011 196.044 116.393 194.383 116.393C191.203 116.393 189.613 117.806 189.613 120.633C189.613 123.53 190.867 124.979 193.376 124.979C194.295 124.979 195.266 124.749 196.291 124.29C197.351 123.795 198.181 123.195 198.782 122.488C198.959 120.368 199.047 118.955 199.047 118.248ZM226.218 113.637C226.218 108.584 224.716 106.058 221.713 106.058C219.558 106.058 217.508 107.206 215.565 109.503V123.76C217.19 124.573 218.904 124.979 220.706 124.979C224.381 124.979 226.218 121.198 226.218 113.637ZM215.565 106.27C218.038 103.867 220.529 102.666 223.038 102.666C225.547 102.666 227.455 103.691 228.762 105.74C230.069 107.789 230.723 110.651 230.723 114.326C230.723 119.308 229.857 122.965 228.126 125.297C226.43 127.629 223.745 128.795 220.07 128.795C217.773 128.795 214.717 128.336 210.901 127.417C211.466 123.954 211.749 118.336 211.749 110.563C211.749 102.79 211.661 97.7547 211.484 95.458L209.364 95.299C209.258 94.875 209.205 94.3273 209.205 93.656C209.205 92.9847 209.223 92.543 209.258 92.331C212.403 92.1897 214.699 92.0307 216.148 91.854L216.36 92.119C215.865 96.359 215.6 101.076 215.565 106.27ZM244.049 102.666C246.523 102.666 248.484 103.249 249.932 104.415C251.416 105.581 252.158 107.1 252.158 108.973C252.158 110.81 251.328 111.729 249.667 111.729C248.678 111.729 247.901 111.429 247.335 110.828C246.805 110.192 246.54 109.45 246.54 108.602C246.54 107.754 246.682 107.047 246.964 106.482C246.116 105.811 245.109 105.475 243.943 105.475C242.777 105.475 241.806 105.758 241.028 106.323C240.286 106.888 239.915 107.719 239.915 108.814C239.915 109.909 240.339 110.863 241.187 111.676C242.071 112.489 243.131 113.16 244.367 113.69C245.604 114.185 246.841 114.715 248.077 115.28C249.314 115.81 250.356 116.587 251.204 117.612C252.088 118.601 252.529 119.838 252.529 121.322C252.529 123.619 251.752 125.438 250.197 126.781C248.678 128.124 246.593 128.795 243.943 128.795C241.293 128.795 239.12 128.23 237.424 127.099C235.764 125.968 234.933 124.484 234.933 122.647V122.435C234.933 120.527 235.764 119.573 237.424 119.573C238.414 119.573 239.173 119.891 239.703 120.527C240.269 121.128 240.551 121.834 240.551 122.647C240.551 123.46 240.463 124.096 240.286 124.555C240.993 125.014 242.106 125.244 243.625 125.244C245.18 125.244 246.346 124.979 247.123 124.449C247.936 123.919 248.342 123.195 248.342 122.276C248.342 121.322 247.901 120.474 247.017 119.732C246.169 118.99 245.127 118.372 243.89 117.877C242.654 117.347 241.417 116.799 240.18 116.234C238.944 115.633 237.884 114.785 237 113.69C236.152 112.595 235.728 111.287 235.728 109.768C235.728 107.577 236.488 105.846 238.007 104.574C239.562 103.302 241.576 102.666 244.049 102.666Z" fill="#FBFBFB"/>
<path d="M184.288 34.323C184.193 33.5657 184.146 32.9267 184.146 32.406C184.146 31.838 184.217 31.1517 184.359 30.347C185.874 30.3943 187.743 30.418 189.968 30.418C192.24 30.418 194.204 30.3943 195.861 30.347C196.003 31.1517 196.074 31.909 196.074 32.619C196.074 33.2817 196.027 33.8497 195.932 34.323L193.447 34.536C186.962 48.4993 183.128 57.7293 181.945 62.226C182.087 65.8233 182.276 69.042 182.513 71.882L185.069 72.095C185.164 72.8523 185.211 73.515 185.211 74.083C185.211 74.6037 185.14 75.2663 184.998 76.071C183.341 76.0237 181.424 76 179.247 76C177.07 76 175.176 76.0237 173.567 76.071C173.425 75.361 173.354 74.7457 173.354 74.225C173.354 73.657 173.401 72.947 173.496 72.095L175.981 71.882C176.265 67.764 176.431 64.498 176.478 62.084C175.247 58.0133 171.934 50.582 166.538 39.79C165.023 36.8553 164.124 35.104 163.84 34.536L161.213 34.323C161.118 33.5657 161.071 32.9267 161.071 32.406C161.071 31.838 161.142 31.1517 161.284 30.347C162.941 30.3943 164.976 30.418 167.39 30.418C169.851 30.418 171.887 30.3943 173.496 30.347C173.638 31.057 173.709 31.696 173.709 32.264C173.709 32.7847 173.662 33.471 173.567 34.323L171.011 34.536C171.91 37.8967 173.401 41.849 175.484 46.393C177.567 50.937 178.892 53.8717 179.46 55.197H179.744C181.022 52.7357 182.371 49.5407 183.791 45.612C185.211 41.636 186.252 37.944 186.915 34.536L184.288 34.323ZM199.348 59.173C199.348 47.7657 203.798 42.062 212.696 42.062C221.595 42.062 226.044 47.7657 226.044 59.173C226.044 64.427 225.216 68.5923 223.559 71.669C221.666 75.2663 218.045 77.065 212.696 77.065C207.348 77.065 203.727 75.2663 201.833 71.669C200.177 68.5923 199.348 64.427 199.348 59.173ZM205.17 59.031C205.17 67.6457 207.679 71.953 212.696 71.953C217.714 71.953 220.222 67.6457 220.222 59.031C220.222 50.369 217.714 46.038 212.696 46.038C207.679 46.038 205.17 50.369 205.17 59.031ZM235.049 66.841L235.12 59.244C235.12 55.0313 234.93 50.9843 234.552 47.103L231.925 46.89C231.783 46.1327 231.712 45.3517 231.712 44.547C231.712 43.7423 231.735 43.198 231.783 42.914C234.197 42.8667 237.131 42.6537 240.587 42.275L240.942 42.63C240.516 45.4227 240.303 50.4163 240.303 57.611V60.948C240.303 64.924 240.658 67.764 241.368 69.468C242.125 71.1247 243.379 71.953 245.131 71.953C247.592 71.953 250.266 70.5093 253.154 67.622C253.248 66.5333 253.296 64.427 253.296 61.303V59.244C253.296 55.0313 253.106 50.9843 252.728 47.103L250.101 46.89C249.959 46.0853 249.888 45.3043 249.888 44.547C249.888 43.7423 249.911 43.198 249.959 42.914C252.373 42.8667 255.307 42.6537 258.763 42.275L259.118 42.63C258.692 45.4227 258.479 50.4163 258.479 57.611V59.883C258.479 63.7643 258.692 67.551 259.118 71.243L261.745 71.385C261.839 72.4263 261.887 73.2073 261.887 73.728C261.887 74.2013 261.816 74.793 261.674 75.503C259.828 75.5977 257.248 75.8343 253.935 76.213C253.556 75.361 253.272 74.1777 253.083 72.663C249.533 75.5977 246.267 77.065 243.285 77.065C240.303 77.065 238.173 76.2367 236.895 74.58C235.664 72.9233 235.049 70.3437 235.049 66.841ZM269.906 71.882C270.332 67.1487 270.545 62.8177 270.545 58.889C270.545 54.913 270.356 50.9843 269.977 47.103L267.35 46.89C267.208 46.1327 267.137 45.3517 267.137 44.547C267.137 43.7423 267.161 43.198 267.208 42.914C269.622 42.8667 272.557 42.6537 276.012 42.275L276.367 42.63C276.32 42.914 276.178 44.3103 275.941 46.819C277.03 45.4463 278.284 44.3103 279.704 43.411C281.172 42.5117 282.592 42.062 283.964 42.062C285.384 42.062 286.615 42.559 287.656 43.553C288.698 44.547 289.218 45.8487 289.218 47.458C289.218 50.1087 288.106 51.434 285.881 51.434C284.603 51.434 283.586 51.0317 282.828 50.227C282.071 49.375 281.692 48.2627 281.692 46.89C281.598 46.8427 281.432 46.819 281.195 46.819C279.444 46.819 277.645 48.1443 275.799 50.795C275.752 52.1203 275.728 55.1023 275.728 59.741C275.728 64.3323 275.941 68.3793 276.367 71.882L278.994 72.095C279.089 73.1363 279.136 73.87 279.136 74.296C279.136 74.6747 279.065 75.2663 278.923 76.071C277.598 76.0237 275.657 76 273.101 76C270.545 76 268.676 76.0237 267.492 76.071C267.35 75.361 267.279 74.6983 267.279 74.083C267.279 73.4203 267.327 72.7577 267.421 72.095L269.906 71.882ZM303.75 42.062C307.064 42.062 309.691 42.843 311.631 44.405C313.619 45.967 314.613 48.0023 314.613 50.511C314.613 52.9723 313.501 54.203 311.276 54.203C309.951 54.203 308.91 53.8007 308.152 52.996C307.442 52.144 307.087 51.15 307.087 50.014C307.087 48.878 307.277 47.9313 307.655 47.174C306.519 46.2747 305.17 45.825 303.608 45.825C302.046 45.825 300.745 46.2037 299.703 46.961C298.709 47.7183 298.212 48.8307 298.212 50.298C298.212 51.7653 298.78 53.0433 299.916 54.132C301.1 55.2207 302.52 56.12 304.176 56.83C305.833 57.4927 307.49 58.2027 309.146 58.96C310.803 59.67 312.199 60.7113 313.335 62.084C314.519 63.4093 315.11 65.066 315.11 67.054C315.11 70.1307 314.069 72.5683 311.986 74.367C309.951 76.1657 307.158 77.065 303.608 77.065C300.058 77.065 297.147 76.3077 294.875 74.793C292.651 73.2783 291.538 71.2903 291.538 68.829V68.545C291.538 65.989 292.651 64.711 294.875 64.711C296.201 64.711 297.218 65.137 297.928 65.989C298.686 66.7937 299.064 67.7403 299.064 68.829C299.064 69.9177 298.946 70.7697 298.709 71.385C299.656 72.0003 301.147 72.308 303.182 72.308C305.265 72.308 306.827 71.953 307.868 71.243C308.957 70.533 309.501 69.5627 309.501 68.332C309.501 67.054 308.91 65.918 307.726 64.924C306.59 63.93 305.194 63.1017 303.537 62.439C301.881 61.729 300.224 60.9953 298.567 60.238C296.911 59.4333 295.491 58.2973 294.307 56.83C293.171 55.3627 292.603 53.6113 292.603 51.576C292.603 48.6413 293.621 46.322 295.656 44.618C297.739 42.914 300.437 42.062 303.75 42.062ZM325.215 61.232L325.002 47.032C322.92 47.032 321.571 47.0557 320.955 47.103C320.671 46.2983 320.529 45.5173 320.529 44.76C320.529 44.0027 320.577 43.482 320.671 43.198H324.789C324.742 42.772 324.718 41.8253 324.718 40.358C324.718 32.1693 328.008 28.075 334.587 28.075C336.765 28.075 338.705 28.5483 340.409 29.495C342.161 30.4417 343.036 31.9327 343.036 33.968C343.036 36.6187 341.924 37.944 339.699 37.944C338.421 37.944 337.404 37.5653 336.646 36.808C335.936 36.0507 335.558 35.1987 335.51 34.252C335.51 33.3053 335.558 32.6427 335.652 32.264C335.226 32.0747 334.777 31.98 334.303 31.98C331.369 31.98 329.901 34.9147 329.901 40.784C329.901 41.9673 329.925 42.7483 329.972 43.127C333.522 43.0797 336.481 42.9377 338.847 42.701C339.131 43.3163 339.273 44.0027 339.273 44.76C339.273 45.5173 339.179 46.393 338.989 47.387C338.327 47.3397 335.439 47.245 330.327 47.103V53.777L330.398 59.173C330.398 64.3323 330.635 68.5687 331.108 71.882L333.664 72.095C333.759 72.521 333.806 73.089 333.806 73.799C333.806 74.509 333.735 75.2663 333.593 76.071C332.268 76.0237 330.327 76 327.771 76C325.215 76 323.346 76.0237 322.162 76.071C322.02 75.361 321.949 74.6983 321.949 74.083C321.949 73.4203 321.997 72.7577 322.091 72.095L324.505 71.882C324.979 67.2907 325.215 63.7407 325.215 61.232ZM346.661 71.882C347.087 67.1487 347.3 62.8177 347.3 58.889C347.3 54.913 347.111 50.9843 346.732 47.103L344.105 46.89C343.963 46.1327 343.892 45.3517 343.892 44.547C343.892 43.7423 343.916 43.198 343.963 42.914C346.377 42.8667 349.312 42.6537 352.767 42.275L353.122 42.63C353.075 42.914 352.933 44.3103 352.696 46.819C353.785 45.4463 355.039 44.3103 356.459 43.411C357.926 42.5117 359.346 42.062 360.719 42.062C362.139 42.062 363.37 42.559 364.411 43.553C365.452 44.547 365.973 45.8487 365.973 47.458C365.973 50.1087 364.861 51.434 362.636 51.434C361.358 51.434 360.34 51.0317 359.583 50.227C358.826 49.375 358.447 48.2627 358.447 46.89C358.352 46.8427 358.187 46.819 357.95 46.819C356.199 46.819 354.4 48.1443 352.554 50.795C352.507 52.1203 352.483 55.1023 352.483 59.741C352.483 64.3323 352.696 68.3793 353.122 71.882L355.749 72.095C355.844 73.1363 355.891 73.87 355.891 74.296C355.891 74.6747 355.82 75.2663 355.678 76.071C354.353 76.0237 352.412 76 349.856 76C347.3 76 345.43 76.0237 344.247 76.071C344.105 75.361 344.034 74.6983 344.034 74.083C344.034 73.4203 344.081 72.7577 344.176 72.095L346.661 71.882ZM372.695 71.882C373.121 67.2433 373.334 63.007 373.334 59.173C373.334 55.2917 373.145 51.2683 372.766 47.103L370.139 46.89C369.997 46.0853 369.926 45.328 369.926 44.618C369.926 43.8607 369.95 43.2927 369.997 42.914C372.743 42.8193 375.677 42.6063 378.801 42.275L379.156 42.63C378.73 45.4227 378.517 50.1087 378.517 56.688C378.517 63.2673 378.73 68.332 379.156 71.882L381.783 72.095C381.878 72.8523 381.925 73.515 381.925 74.083C381.925 74.6037 381.854 75.2663 381.712 76.071C380.056 76.0237 378.139 76 375.961 76C373.784 76 371.891 76.0237 370.281 76.071C370.139 75.361 370.068 74.6273 370.068 73.87C370.068 73.1127 370.116 72.521 370.21 72.095L372.695 71.882ZM379.866 32.477C379.866 35.4117 378.352 36.879 375.322 36.879C372.956 36.879 371.772 35.672 371.772 33.258C371.772 30.276 373.287 28.785 376.316 28.785C378.683 28.785 379.866 30.0157 379.866 32.477ZM400.364 60.238C398.044 60.238 395.891 60.1197 393.903 59.883C393.997 67.9297 396.672 71.953 401.926 71.953C404.576 71.953 407.511 70.4857 410.73 67.551C412.102 68.971 412.978 70.8407 413.357 73.16C409.475 75.7633 405.357 77.065 401.003 77.065C396.648 77.065 393.406 75.574 391.276 72.592C389.146 69.5627 388.081 65.137 388.081 59.315C388.081 53.493 389.264 49.162 391.631 46.322C394.045 43.482 397.453 42.062 401.855 42.062C405.121 42.062 407.819 43.056 409.949 45.044C412.079 47.032 413.144 49.4697 413.144 52.357C413.191 55.2443 412.954 57.3033 412.434 58.534C408.884 59.67 404.86 60.238 400.364 60.238ZM401.358 46.038C396.956 46.038 394.494 49.2803 393.974 55.765C396.104 56.0017 398.447 56.12 401.003 56.12C403.559 56.12 405.547 55.8833 406.967 55.41C407.156 54.2267 407.251 53.351 407.251 52.783C407.251 50.7003 406.706 49.0673 405.618 47.884C404.576 46.6533 403.156 46.038 401.358 46.038ZM448.372 51.15L448.301 58.037C448.301 63.007 448.585 67.622 449.153 71.882L451.638 72.095C451.733 73.1363 451.78 73.87 451.78 74.296C451.78 74.6747 451.709 75.2663 451.567 76.071C450.242 76.0237 448.254 76 445.603 76C442.952 76 441.059 76.0237 439.923 76.071C439.781 75.361 439.71 74.6983 439.71 74.083C439.71 73.4203 439.757 72.7577 439.852 72.095L442.337 71.882C442.716 66.344 442.905 61.6107 442.905 57.682C442.905 53.706 442.503 50.866 441.698 49.162C440.941 47.458 439.615 46.606 437.722 46.606C435.166 46.606 432.35 48.1443 429.273 51.221C429.226 52.4517 429.202 55.339 429.202 59.883C429.202 64.3797 429.415 68.3793 429.841 71.882L432.468 72.095C432.563 73.1363 432.61 73.87 432.61 74.296C432.61 74.6747 432.539 75.2663 432.397 76.071C431.072 76.0237 429.131 76 426.575 76C424.019 76 422.149 76.0237 420.966 76.071C420.824 75.361 420.753 74.6983 420.753 74.083C420.753 73.4203 420.8 72.7577 420.895 72.095L423.38 71.882C423.806 67.1487 424.019 62.8177 424.019 58.889C424.019 54.913 423.83 50.9843 423.451 47.103L420.824 46.89C420.682 46.0853 420.611 45.3043 420.611 44.547C420.611 43.7423 420.635 43.198 420.682 42.914C423.096 42.8667 426.031 42.6537 429.486 42.275L429.841 42.63C429.746 43.198 429.604 44.618 429.415 46.89C430.882 45.4227 432.586 44.263 434.527 43.411C436.468 42.5117 438.29 42.062 439.994 42.062C445.579 42.062 448.372 45.0913 448.372 51.15ZM478.703 43.766L478.774 39.293C478.774 36.453 478.68 34.1573 478.49 32.406L475.65 32.193C475.508 31.625 475.437 30.8913 475.437 29.992C475.437 29.0927 475.461 28.501 475.508 28.217C479.721 28.0277 482.798 27.8147 484.738 27.578L485.022 27.933C484.312 34.1337 483.957 42.133 483.957 51.931C483.957 61.6817 484.17 68.119 484.596 71.243L487.223 71.385C487.318 72.4263 487.365 73.2073 487.365 73.728C487.365 74.2013 487.294 74.793 487.152 75.503C485.306 75.5977 482.727 75.8343 479.413 76.213C479.035 75.4557 478.751 74.2487 478.561 72.592C475.295 75.574 471.982 77.065 468.621 77.065C465.308 77.065 462.752 75.5503 460.953 72.521C459.202 69.4917 458.326 65.208 458.326 59.67C458.326 54.0847 459.439 49.7537 461.663 46.677C463.935 43.6003 467.178 42.062 471.39 42.062C473.757 42.062 476.195 42.63 478.703 43.766ZM471.461 46.251C466.728 46.251 464.361 50.9607 464.361 60.38C464.361 63.93 464.882 66.699 465.923 68.687C467.012 70.6277 468.503 71.598 470.396 71.598C471.674 71.598 473.071 71.1957 474.585 70.391C476.147 69.5863 477.496 68.5687 478.632 67.338C478.727 61.4687 478.774 55.126 478.774 48.31C475.745 46.9373 473.307 46.251 471.461 46.251Z" fill="white"/>
<path d="M266.512 123.49C266.884 123.49 267.172 123.604 267.376 123.832C267.58 124.06 267.682 124.342 267.682 124.678C267.682 125.002 267.628 125.266 267.52 125.47C268.048 125.902 268.654 126.118 269.338 126.118C270.034 126.118 270.556 125.962 270.904 125.65C271.252 125.326 271.426 124.888 271.426 124.336C271.426 123.784 271.234 123.31 270.85 122.914C270.466 122.518 269.998 122.188 269.446 121.924C268.906 121.66 268.366 121.384 267.826 121.096C267.286 120.796 266.824 120.4 266.44 119.908C266.056 119.416 265.864 118.834 265.864 118.162C265.864 117.238 266.17 116.518 266.782 116.002C267.394 115.474 268.18 115.21 269.14 115.21C270.1 115.21 270.928 115.438 271.624 115.894C272.332 116.35 272.686 116.968 272.686 117.748C272.686 118.516 272.374 118.9 271.75 118.9C271.378 118.9 271.09 118.786 270.886 118.558C270.682 118.33 270.58 118.036 270.58 117.676C270.58 117.316 270.652 117.04 270.796 116.848C270.376 116.464 269.86 116.272 269.248 116.272C268.636 116.272 268.174 116.428 267.862 116.74C267.562 117.052 267.412 117.442 267.412 117.91C267.412 118.378 267.55 118.78 267.826 119.116C268.102 119.44 268.444 119.71 268.852 119.926C269.26 120.13 269.704 120.37 270.184 120.646C270.664 120.91 271.108 121.174 271.516 121.438C271.924 121.702 272.266 122.062 272.542 122.518C272.818 122.962 272.956 123.472 272.956 124.048C272.956 124.996 272.626 125.77 271.966 126.37C271.318 126.97 270.484 127.27 269.464 127.27C268.444 127.27 267.538 127.036 266.746 126.568C265.966 126.088 265.576 125.422 265.576 124.57C265.576 123.85 265.888 123.49 266.512 123.49ZM274.458 122.734C274.458 119.842 275.586 118.396 277.842 118.396C280.098 118.396 281.226 119.842 281.226 122.734C281.226 124.066 281.016 125.122 280.596 125.902C280.116 126.814 279.198 127.27 277.842 127.27C276.486 127.27 275.568 126.814 275.088 125.902C274.668 125.122 274.458 124.066 274.458 122.734ZM275.934 122.698C275.934 124.882 276.57 125.974 277.842 125.974C279.114 125.974 279.75 124.882 279.75 122.698C279.75 120.502 279.114 119.404 277.842 119.404C276.57 119.404 275.934 120.502 275.934 122.698ZM283.833 123.256L283.779 119.656C283.251 119.656 282.909 119.662 282.753 119.674C282.681 119.47 282.645 119.272 282.645 119.08C282.645 118.888 282.657 118.756 282.681 118.684H283.725C283.713 118.576 283.707 118.336 283.707 117.964C283.707 115.888 284.541 114.85 286.209 114.85C286.761 114.85 287.253 114.97 287.685 115.21C288.129 115.45 288.351 115.828 288.351 116.344C288.351 117.016 288.069 117.352 287.505 117.352C287.181 117.352 286.923 117.256 286.731 117.064C286.551 116.872 286.455 116.656 286.443 116.416C286.443 116.176 286.455 116.008 286.479 115.912C286.371 115.864 286.257 115.84 286.137 115.84C285.393 115.84 285.021 116.584 285.021 118.072C285.021 118.372 285.027 118.57 285.039 118.666C285.939 118.654 286.689 118.618 287.289 118.558C287.361 118.714 287.397 118.888 287.397 119.08C287.397 119.272 287.373 119.494 287.325 119.746C287.157 119.734 286.425 119.71 285.129 119.674V121.366L285.147 122.734C285.147 124.042 285.207 125.116 285.327 125.956L285.975 126.01C285.999 126.118 286.011 126.262 286.011 126.442C286.011 126.622 285.993 126.814 285.957 127.018C285.621 127.006 285.129 127 284.481 127C283.833 127 283.359 127.006 283.059 127.018C283.023 126.838 283.005 126.67 283.005 126.514C283.005 126.346 283.017 126.178 283.041 126.01L283.653 125.956C283.773 124.792 283.833 123.892 283.833 123.256ZM289.342 124.084C289.342 124.084 289.354 122.746 289.378 120.07C289.378 119.89 289.372 119.752 289.36 119.656C288.856 119.656 288.496 119.662 288.28 119.674C288.208 119.482 288.172 119.296 288.172 119.116C288.172 118.924 288.184 118.78 288.208 118.684H289.306L289.216 117.352C289.516 117.256 289.828 117.208 290.152 117.208C290.488 117.208 290.764 117.232 290.98 117.28L290.818 118.666C291.478 118.654 292.144 118.618 292.816 118.558C292.888 118.714 292.924 118.888 292.924 119.08C292.924 119.26 292.9 119.482 292.852 119.746C292.408 119.722 291.706 119.698 290.746 119.674C290.722 119.914 290.71 120.268 290.71 120.736V124.39C290.71 124.702 290.722 124.96 290.746 125.164C290.782 125.356 290.86 125.536 290.98 125.704C291.112 125.86 291.298 125.938 291.538 125.938C292.066 125.938 292.57 125.752 293.05 125.38C293.302 125.74 293.428 126.226 293.428 126.838C292.768 127.126 292.192 127.27 291.7 127.27C291.22 127.27 290.836 127.204 290.548 127.072C290.26 126.952 290.038 126.808 289.882 126.64C289.726 126.46 289.606 126.214 289.522 125.902C289.402 125.458 289.342 124.852 289.342 124.084ZM300.496 120.79L300.424 123.382C300.424 124.198 300.472 124.996 300.568 125.776L301.234 125.83C301.258 126.022 301.27 126.202 301.27 126.37C301.27 126.526 301.252 126.694 301.216 126.874C300.868 126.886 300.19 126.946 299.182 127.054C299.098 126.826 299.032 126.544 298.984 126.208C298.048 126.916 297.238 127.27 296.554 127.27C295.882 127.27 295.354 127.054 294.97 126.622C294.598 126.178 294.412 125.554 294.412 124.75C294.412 123.934 294.664 123.292 295.168 122.824C295.684 122.356 296.326 122.122 297.094 122.122C297.874 122.122 298.54 122.266 299.092 122.554C299.104 122.422 299.11 122.206 299.11 121.906C299.11 121.018 298.984 120.382 298.732 119.998C298.492 119.602 298.12 119.404 297.616 119.404C297.112 119.404 296.746 119.5 296.518 119.692C296.614 119.884 296.662 120.124 296.662 120.412C296.662 120.7 296.566 120.952 296.374 121.168C296.194 121.372 295.936 121.474 295.6 121.474C295.036 121.474 294.754 121.144 294.754 120.484C294.754 119.812 295.006 119.296 295.51 118.936C296.014 118.576 296.722 118.396 297.634 118.396C298.546 118.396 299.248 118.612 299.74 119.044C300.244 119.464 300.496 120.046 300.496 120.79ZM299.02 123.688C298.528 123.268 298 123.058 297.436 123.058C296.356 123.058 295.816 123.538 295.816 124.498C295.816 125.482 296.242 125.974 297.094 125.974C297.406 125.974 297.736 125.896 298.084 125.74C298.444 125.572 298.726 125.368 298.93 125.128C298.99 124.408 299.02 123.928 299.02 123.688ZM307.078 119.62C307.438 119.536 307.744 119.494 307.996 119.494C308.26 119.494 308.5 119.512 308.716 119.548C308.956 121.516 309.298 123.334 309.742 125.002H309.814C310.09 124.402 310.36 123.586 310.624 122.554C310.9 121.522 311.098 120.556 311.218 119.656L310.48 119.602C310.456 119.482 310.444 119.326 310.444 119.134C310.444 118.93 310.462 118.75 310.498 118.594C310.858 118.606 311.356 118.612 311.992 118.612C312.64 118.612 313.138 118.606 313.486 118.594C313.522 118.75 313.54 118.918 313.54 119.098C313.54 119.278 313.528 119.446 313.504 119.602L312.892 119.656C311.5 123.232 310.636 125.68 310.3 127C309.988 127.084 309.706 127.126 309.454 127.126C309.214 127.126 309.052 127.12 308.968 127.108C308.836 126.172 308.44 124.45 307.78 121.942H307.708C307.024 124.006 306.532 125.692 306.232 127C305.92 127.084 305.638 127.126 305.386 127.126C305.146 127.126 304.984 127.12 304.9 127.108C304.684 126.136 304.354 124.942 303.91 123.526C303.466 122.098 303.016 120.808 302.56 119.656L301.966 119.602C301.942 119.458 301.93 119.296 301.93 119.116C301.93 118.924 301.948 118.75 301.984 118.594C302.332 118.606 302.854 118.612 303.55 118.612C304.246 118.612 304.774 118.606 305.134 118.594C305.17 118.75 305.188 118.924 305.188 119.116C305.188 119.296 305.176 119.458 305.152 119.602L304.432 119.656C304.6 121.012 305.014 122.794 305.674 125.002H305.746C306.01 124.402 306.28 123.55 306.556 122.446C306.832 121.33 307.006 120.388 307.078 119.62ZM320.605 120.79L320.533 123.382C320.533 124.198 320.581 124.996 320.677 125.776L321.343 125.83C321.367 126.022 321.379 126.202 321.379 126.37C321.379 126.526 321.361 126.694 321.325 126.874C320.977 126.886 320.299 126.946 319.291 127.054C319.207 126.826 319.141 126.544 319.093 126.208C318.157 126.916 317.347 127.27 316.663 127.27C315.991 127.27 315.463 127.054 315.079 126.622C314.707 126.178 314.521 125.554 314.521 124.75C314.521 123.934 314.773 123.292 315.277 122.824C315.793 122.356 316.435 122.122 317.203 122.122C317.983 122.122 318.649 122.266 319.201 122.554C319.213 122.422 319.219 122.206 319.219 121.906C319.219 121.018 319.093 120.382 318.841 119.998C318.601 119.602 318.229 119.404 317.725 119.404C317.221 119.404 316.855 119.5 316.627 119.692C316.723 119.884 316.771 120.124 316.771 120.412C316.771 120.7 316.675 120.952 316.483 121.168C316.303 121.372 316.045 121.474 315.709 121.474C315.145 121.474 314.863 121.144 314.863 120.484C314.863 119.812 315.115 119.296 315.619 118.936C316.123 118.576 316.831 118.396 317.743 118.396C318.655 118.396 319.357 118.612 319.849 119.044C320.353 119.464 320.605 120.046 320.605 120.79ZM319.129 123.688C318.637 123.268 318.109 123.058 317.545 123.058C316.465 123.058 315.925 123.538 315.925 124.498C315.925 125.482 316.351 125.974 317.203 125.974C317.515 125.974 317.845 125.896 318.193 125.74C318.553 125.572 318.835 125.368 319.039 125.128C319.099 124.408 319.129 123.928 319.129 123.688ZM323.407 125.956C323.515 124.756 323.569 123.658 323.569 122.662C323.569 121.654 323.521 120.658 323.425 119.674L322.759 119.62C322.723 119.428 322.705 119.23 322.705 119.026C322.705 118.822 322.711 118.684 322.723 118.612C323.335 118.6 324.079 118.546 324.955 118.45L325.045 118.54C325.033 118.612 324.997 118.966 324.937 119.602C325.213 119.254 325.531 118.966 325.891 118.738C326.263 118.51 326.623 118.396 326.971 118.396C327.331 118.396 327.643 118.522 327.907 118.774C328.171 119.026 328.303 119.356 328.303 119.764C328.303 120.436 328.021 120.772 327.457 120.772C327.133 120.772 326.875 120.67 326.683 120.466C326.491 120.25 326.395 119.968 326.395 119.62C326.371 119.608 326.329 119.602 326.269 119.602C325.825 119.602 325.369 119.938 324.901 120.61C324.889 120.946 324.883 121.702 324.883 122.878C324.883 124.042 324.937 125.068 325.045 125.956L325.711 126.01C325.735 126.274 325.747 126.46 325.747 126.568C325.747 126.664 325.729 126.814 325.693 127.018C325.357 127.006 324.865 127 324.217 127C323.569 127 323.095 127.006 322.795 127.018C322.759 126.838 322.741 126.67 322.741 126.514C322.741 126.346 322.753 126.178 322.777 126.01L323.407 125.956ZM332.293 123.004C331.705 123.004 331.159 122.974 330.655 122.914C330.679 124.954 331.357 125.974 332.689 125.974C333.361 125.974 334.105 125.602 334.921 124.858C335.269 125.218 335.491 125.692 335.587 126.28C334.603 126.94 333.559 127.27 332.455 127.27C331.351 127.27 330.529 126.892 329.989 126.136C329.449 125.368 329.179 124.246 329.179 122.77C329.179 121.294 329.479 120.196 330.079 119.476C330.691 118.756 331.555 118.396 332.671 118.396C333.499 118.396 334.183 118.648 334.723 119.152C335.263 119.656 335.533 120.274 335.533 121.006C335.545 121.738 335.485 122.26 335.353 122.572C334.453 122.86 333.433 123.004 332.293 123.004ZM332.545 119.404C331.429 119.404 330.805 120.226 330.673 121.87C331.213 121.93 331.807 121.96 332.455 121.96C333.103 121.96 333.607 121.9 333.967 121.78C334.015 121.48 334.039 121.258 334.039 121.114C334.039 120.586 333.901 120.172 333.625 119.872C333.361 119.56 333.001 119.404 332.545 119.404ZM347.695 121.888C347.671 121.72 347.659 121.552 347.659 121.384C347.659 121.216 347.677 121.048 347.713 120.88C347.989 120.892 348.511 120.898 349.279 120.898C350.047 120.898 350.581 120.892 350.881 120.88C350.917 121.06 350.935 121.246 350.935 121.438C350.935 121.618 350.923 121.768 350.899 121.888L349.909 121.942C349.693 122.962 349.363 123.838 348.919 124.57C349.579 125.302 350.227 126.082 350.863 126.91C350.455 127.114 350.041 127.216 349.621 127.216C349.201 127.216 348.949 127.21 348.865 127.198C348.601 126.85 348.379 126.562 348.199 126.334C348.031 126.094 347.923 125.944 347.875 125.884C346.879 126.808 345.745 127.27 344.473 127.27C343.585 127.27 342.865 126.988 342.313 126.424C341.761 125.848 341.485 125.104 341.485 124.192C341.485 122.968 342.097 121.876 343.321 120.916C342.649 120.016 342.313 119.038 342.313 117.982C342.313 117.142 342.595 116.47 343.159 115.966C343.735 115.462 344.449 115.21 345.301 115.21C346.165 115.21 346.825 115.438 347.281 115.894C347.749 116.338 347.983 116.89 347.983 117.55C347.983 118.198 347.785 118.768 347.389 119.26C347.005 119.752 346.345 120.31 345.409 120.934C345.661 121.246 346.525 122.146 348.001 123.634C348.241 123.094 348.403 122.53 348.487 121.942L347.695 121.888ZM344.869 125.974C345.625 125.974 346.363 125.632 347.083 124.948C346.711 124.504 345.727 123.478 344.131 121.87C343.351 122.506 342.961 123.148 342.961 123.796C342.961 124.444 343.135 124.972 343.483 125.38C343.843 125.776 344.305 125.974 344.869 125.974ZM343.735 117.766C343.735 118.414 344.041 119.164 344.653 120.016C345.349 119.572 345.841 119.182 346.129 118.846C346.417 118.51 346.561 118.138 346.561 117.73C346.561 117.322 346.423 116.968 346.147 116.668C345.871 116.368 345.523 116.218 345.103 116.218C344.695 116.218 344.365 116.362 344.113 116.65C343.861 116.938 343.735 117.31 343.735 117.766ZM360.551 116.668C360.467 117.604 360.425 119.11 360.425 121.186C360.425 123.25 360.473 124.84 360.569 125.956L361.613 126.064C361.637 126.256 361.649 126.412 361.649 126.532C361.649 126.64 361.631 126.802 361.595 127.018C361.163 127.006 360.539 127 359.723 127C358.919 127 358.331 127.006 357.959 127.018C357.923 126.838 357.905 126.688 357.905 126.568C357.905 126.448 357.917 126.28 357.941 126.064L358.931 125.956C359.027 124.672 359.075 123.046 359.075 121.078C359.075 119.098 359.021 117.628 358.913 116.668C358.445 116.68 357.797 116.722 356.969 116.794L356.915 118.126C356.723 118.162 356.543 118.18 356.375 118.18C356.207 118.18 356.051 118.174 355.907 118.162C355.871 117.178 355.817 116.266 355.745 115.426L355.835 115.336C356.723 115.444 358.145 115.498 360.101 115.498C362.057 115.498 363.281 115.444 363.773 115.336L363.863 115.426C363.779 116.35 363.725 117.202 363.701 117.982C363.557 117.994 363.401 118 363.233 118C363.077 118 362.897 117.982 362.693 117.946L362.639 116.74C362.135 116.716 361.439 116.692 360.551 116.668ZM365.419 125.956C365.527 124.756 365.581 123.658 365.581 122.662C365.581 121.654 365.533 120.658 365.437 119.674L364.771 119.62C364.735 119.428 364.717 119.23 364.717 119.026C364.717 118.822 364.723 118.684 364.735 118.612C365.347 118.6 366.091 118.546 366.967 118.45L367.057 118.54C367.045 118.612 367.009 118.966 366.949 119.602C367.225 119.254 367.543 118.966 367.903 118.738C368.275 118.51 368.635 118.396 368.983 118.396C369.343 118.396 369.655 118.522 369.919 118.774C370.183 119.026 370.315 119.356 370.315 119.764C370.315 120.436 370.033 120.772 369.469 120.772C369.145 120.772 368.887 120.67 368.695 120.466C368.503 120.25 368.407 119.968 368.407 119.62C368.383 119.608 368.341 119.602 368.281 119.602C367.837 119.602 367.381 119.938 366.913 120.61C366.901 120.946 366.895 121.702 366.895 122.878C366.895 124.042 366.949 125.068 367.057 125.956L367.723 126.01C367.747 126.274 367.759 126.46 367.759 126.568C367.759 126.664 367.741 126.814 367.705 127.018C367.369 127.006 366.877 127 366.229 127C365.581 127 365.107 127.006 364.807 127.018C364.771 126.838 364.753 126.67 364.753 126.514C364.753 126.346 364.765 126.178 364.789 126.01L365.419 125.956ZM377.365 120.79L377.293 123.382C377.293 124.198 377.341 124.996 377.437 125.776L378.103 125.83C378.127 126.022 378.139 126.202 378.139 126.37C378.139 126.526 378.121 126.694 378.085 126.874C377.737 126.886 377.059 126.946 376.051 127.054C375.967 126.826 375.901 126.544 375.853 126.208C374.917 126.916 374.107 127.27 373.423 127.27C372.751 127.27 372.223 127.054 371.839 126.622C371.467 126.178 371.281 125.554 371.281 124.75C371.281 123.934 371.533 123.292 372.037 122.824C372.553 122.356 373.195 122.122 373.963 122.122C374.743 122.122 375.409 122.266 375.961 122.554C375.973 122.422 375.979 122.206 375.979 121.906C375.979 121.018 375.853 120.382 375.601 119.998C375.361 119.602 374.989 119.404 374.485 119.404C373.981 119.404 373.615 119.5 373.387 119.692C373.483 119.884 373.531 120.124 373.531 120.412C373.531 120.7 373.435 120.952 373.243 121.168C373.063 121.372 372.805 121.474 372.469 121.474C371.905 121.474 371.623 121.144 371.623 120.484C371.623 119.812 371.875 119.296 372.379 118.936C372.883 118.576 373.591 118.396 374.503 118.396C375.415 118.396 376.117 118.612 376.609 119.044C377.113 119.464 377.365 120.046 377.365 120.79ZM375.889 123.688C375.397 123.268 374.869 123.058 374.305 123.058C373.225 123.058 372.685 123.538 372.685 124.498C372.685 125.482 373.111 125.974 373.963 125.974C374.275 125.974 374.605 125.896 374.953 125.74C375.313 125.572 375.595 125.368 375.799 125.128C375.859 124.408 375.889 123.928 375.889 123.688ZM380.527 125.956C380.635 124.78 380.689 123.706 380.689 122.734C380.689 121.75 380.641 120.73 380.545 119.674L379.879 119.62C379.843 119.416 379.825 119.224 379.825 119.044C379.825 118.852 379.831 118.708 379.843 118.612C380.539 118.588 381.283 118.534 382.075 118.45L382.165 118.54C382.057 119.248 382.003 120.436 382.003 122.104C382.003 123.772 382.057 125.056 382.165 125.956L382.831 126.01C382.855 126.202 382.867 126.37 382.867 126.514C382.867 126.646 382.849 126.814 382.813 127.018C382.393 127.006 381.907 127 381.355 127C380.803 127 380.323 127.006 379.915 127.018C379.879 126.838 379.861 126.652 379.861 126.46C379.861 126.268 379.873 126.118 379.897 126.01L380.527 125.956ZM382.345 115.966C382.345 116.71 381.961 117.082 381.193 117.082C380.593 117.082 380.293 116.776 380.293 116.164C380.293 115.408 380.677 115.03 381.445 115.03C382.045 115.03 382.345 115.342 382.345 115.966ZM391.591 120.7L391.573 122.446C391.573 123.706 391.645 124.876 391.789 125.956L392.419 126.01C392.443 126.274 392.455 126.46 392.455 126.568C392.455 126.664 392.437 126.814 392.401 127.018C392.065 127.006 391.561 127 390.889 127C390.217 127 389.737 127.006 389.449 127.018C389.413 126.838 389.395 126.67 389.395 126.514C389.395 126.346 389.407 126.178 389.431 126.01L390.061 125.956C390.157 124.552 390.205 123.352 390.205 122.356C390.205 121.348 390.103 120.628 389.899 120.196C389.707 119.764 389.371 119.548 388.891 119.548C388.243 119.548 387.529 119.938 386.749 120.718C386.737 121.03 386.731 121.762 386.731 122.914C386.731 124.054 386.785 125.068 386.893 125.956L387.559 126.01C387.583 126.274 387.595 126.46 387.595 126.568C387.595 126.664 387.577 126.814 387.541 127.018C387.205 127.006 386.713 127 386.065 127C385.417 127 384.943 127.006 384.643 127.018C384.607 126.838 384.589 126.67 384.589 126.514C384.589 126.346 384.601 126.178 384.625 126.01L385.255 125.956C385.363 124.756 385.417 123.658 385.417 122.662C385.417 121.654 385.369 120.658 385.273 119.674L384.607 119.62C384.571 119.416 384.553 119.218 384.553 119.026C384.553 118.822 384.559 118.684 384.571 118.612C385.183 118.6 385.927 118.546 386.803 118.45L386.893 118.54C386.869 118.684 386.833 119.044 386.785 119.62C387.157 119.248 387.589 118.954 388.081 118.738C388.573 118.51 389.035 118.396 389.467 118.396C390.883 118.396 391.591 119.164 391.591 120.7ZM394.853 125.956C394.961 124.78 395.015 123.706 395.015 122.734C395.015 121.75 394.967 120.73 394.871 119.674L394.205 119.62C394.169 119.416 394.151 119.224 394.151 119.044C394.151 118.852 394.157 118.708 394.169 118.612C394.865 118.588 395.609 118.534 396.401 118.45L396.491 118.54C396.383 119.248 396.329 120.436 396.329 122.104C396.329 123.772 396.383 125.056 396.491 125.956L397.157 126.01C397.181 126.202 397.193 126.37 397.193 126.514C397.193 126.646 397.175 126.814 397.139 127.018C396.719 127.006 396.233 127 395.681 127C395.129 127 394.649 127.006 394.241 127.018C394.205 126.838 394.187 126.652 394.187 126.46C394.187 126.268 394.199 126.118 394.223 126.01L394.853 125.956ZM396.671 115.966C396.671 116.71 396.287 117.082 395.519 117.082C394.919 117.082 394.619 116.776 394.619 116.164C394.619 115.408 395.003 115.03 395.771 115.03C396.371 115.03 396.671 115.342 396.671 115.966ZM405.917 120.7L405.899 122.446C405.899 123.706 405.971 124.876 406.115 125.956L406.745 126.01C406.769 126.274 406.781 126.46 406.781 126.568C406.781 126.664 406.763 126.814 406.727 127.018C406.391 127.006 405.887 127 405.215 127C404.543 127 404.063 127.006 403.775 127.018C403.739 126.838 403.721 126.67 403.721 126.514C403.721 126.346 403.733 126.178 403.757 126.01L404.387 125.956C404.483 124.552 404.531 123.352 404.531 122.356C404.531 121.348 404.429 120.628 404.225 120.196C404.033 119.764 403.697 119.548 403.217 119.548C402.569 119.548 401.855 119.938 401.075 120.718C401.063 121.03 401.057 121.762 401.057 122.914C401.057 124.054 401.111 125.068 401.219 125.956L401.885 126.01C401.909 126.274 401.921 126.46 401.921 126.568C401.921 126.664 401.903 126.814 401.867 127.018C401.531 127.006 401.039 127 400.391 127C399.743 127 399.269 127.006 398.969 127.018C398.933 126.838 398.915 126.67 398.915 126.514C398.915 126.346 398.927 126.178 398.951 126.01L399.581 125.956C399.689 124.756 399.743 123.658 399.743 122.662C399.743 121.654 399.695 120.658 399.599 119.674L398.933 119.62C398.897 119.416 398.879 119.218 398.879 119.026C398.879 118.822 398.885 118.684 398.897 118.612C399.509 118.6 400.253 118.546 401.129 118.45L401.219 118.54C401.195 118.684 401.159 119.044 401.111 119.62C401.483 119.248 401.915 118.954 402.407 118.738C402.899 118.51 403.361 118.396 403.793 118.396C405.209 118.396 405.917 119.164 405.917 120.7ZM411.501 118.396C411.645 118.396 411.753 118.402 411.825 118.414C412.581 117.262 413.403 116.686 414.291 116.686C415.071 116.686 415.461 117.064 415.461 117.82C415.461 118.348 415.197 118.612 414.669 118.612C414.153 118.612 413.853 118.342 413.769 117.802C413.421 117.802 413.097 118.06 412.797 118.576C413.961 118.96 414.543 119.92 414.543 121.456C414.543 122.392 414.357 123.172 413.985 123.796C413.565 124.492 412.737 124.84 411.501 124.84C410.985 124.84 410.565 124.78 410.241 124.66C409.989 125.104 409.803 125.59 409.683 126.118C409.887 126.154 410.103 126.172 410.331 126.172C410.559 126.172 411.015 126.13 411.699 126.046C412.383 125.962 412.875 125.92 413.175 125.92C413.799 125.92 414.303 126.076 414.687 126.388C415.071 126.7 415.263 127.18 415.263 127.828C415.263 128.476 415.053 129.04 414.633 129.52C413.901 130.36 412.761 130.78 411.213 130.78C410.169 130.78 409.371 130.648 408.819 130.384C408.267 130.12 407.991 129.628 407.991 128.908C407.991 128.38 408.273 127.834 408.837 127.27C408.609 127.102 408.495 126.868 408.495 126.568C408.495 125.932 408.801 125.152 409.413 124.228C408.777 123.712 408.459 122.788 408.459 121.456C408.459 119.416 409.473 118.396 411.501 118.396ZM409.917 121.474C409.917 122.89 410.445 123.598 411.501 123.598C412.557 123.598 413.085 122.89 413.085 121.474C413.085 120.058 412.557 119.35 411.501 119.35C410.445 119.35 409.917 120.058 409.917 121.474ZM409.449 128.638C409.449 129.406 410.151 129.79 411.555 129.79C412.155 129.79 412.689 129.658 413.157 129.394C413.637 129.13 413.877 128.734 413.877 128.206C413.877 127.618 413.559 127.324 412.923 127.324C412.611 127.324 412.119 127.36 411.447 127.432C410.775 127.516 410.235 127.558 409.827 127.558H409.683C409.527 127.894 409.449 128.254 409.449 128.638Z" fill="#FDFDFD"/>
<ellipse cx="72.9543" cy="52.5282" rx="25.965" ry="24.5282" fill="white"/>
<path d="M61.0493 50.656C62.0293 50.616 62.7493 50.406 63.2093 50.026C63.6693 49.626 63.8993 49.066 63.8993 48.346C63.8993 47.806 63.7993 46.736 63.5993 45.136C63.5793 44.976 63.5193 44.466 63.4193 43.606C63.3193 42.726 63.2693 41.936 63.2693 41.236C63.2693 39.536 63.7893 38.216 64.8293 37.276C65.8693 36.316 67.2593 35.836 68.9993 35.836H71.1593V40.036H69.9893C69.3493 40.036 68.8893 40.176 68.6093 40.456C68.3293 40.736 68.1893 41.166 68.1893 41.746C68.1893 42.186 68.2693 43.186 68.4293 44.746C68.6093 46.686 68.6993 47.956 68.6993 48.556C68.6993 49.656 68.4293 50.566 67.8893 51.286C67.3693 52.006 66.5693 52.466 65.4893 52.666V52.726C66.5693 52.946 67.3693 53.416 67.8893 54.136C68.4293 54.836 68.6993 55.746 68.6993 56.866C68.6993 57.466 68.6093 58.736 68.4293 60.676C68.2693 62.196 68.1893 63.186 68.1893 63.646C68.1893 64.226 68.3293 64.656 68.6093 64.936C68.8893 65.236 69.3493 65.386 69.9893 65.386H71.1593V69.586H68.9993C67.2593 69.586 65.8693 69.106 64.8293 68.146C63.7893 67.206 63.2693 65.876 63.2693 64.156C63.2693 63.456 63.3193 62.676 63.4193 61.816C63.5193 60.936 63.5793 60.416 63.5993 60.256C63.7993 58.656 63.8993 57.586 63.8993 57.046C63.8993 56.366 63.6693 55.826 63.2093 55.426C62.7493 55.006 62.0293 54.776 61.0493 54.736V50.656ZM85.53 54.736C84.55 54.776 83.83 55.006 83.37 55.426C82.91 55.826 82.68 56.366 82.68 57.046C82.68 57.586 82.78 58.656 82.98 60.256C83 60.416 83.06 60.936 83.16 61.816C83.26 62.676 83.31 63.456 83.31 64.156C83.31 65.876 82.79 67.206 81.75 68.146C80.71 69.106 79.32 69.586 77.58 69.586H75.42V65.386H76.59C77.23 65.386 77.69 65.236 77.97 64.936C78.25 64.656 78.39 64.226 78.39 63.646C78.39 63.186 78.31 62.196 78.15 60.676C77.97 58.736 77.88 57.466 77.88 56.866C77.88 55.746 78.14 54.836 78.66 54.136C79.2 53.416 80.01 52.946 81.09 52.726V52.666C80.01 52.466 79.2 52.006 78.66 51.286C78.14 50.566 77.88 49.656 77.88 48.556C77.88 47.956 77.97 46.686 78.15 44.746C78.31 43.186 78.39 42.186 78.39 41.746C78.39 41.166 78.25 40.736 77.97 40.456C77.69 40.176 77.23 40.036 76.59 40.036H75.42V35.836H77.58C79.32 35.836 80.71 36.316 81.75 37.276C82.79 38.216 83.31 39.536 83.31 41.236C83.31 41.936 83.26 42.726 83.16 43.606C83.06 44.466 83 44.976 82.98 45.136C82.78 46.736 82.68 47.806 82.68 48.346C82.68 49.066 82.91 49.626 83.37 50.026C83.83 50.406 84.55 50.616 85.53 50.656V54.736Z" fill="#983030"/>
<rect width="76.7706" height="22.6328" rx="6" transform="matrix(0.887524 0.460762 -0.570939 0.820992 12.9219 58.6371)" fill="#6AA964"/>
<rect width="50.3966" height="30.2447" rx="6" transform="matrix(0.887524 0.460762 -0.570939 0.820992 80.917 91.9485)" fill="#6AA964"/>
<path d="M75.5464 95.7566C75.6483 94.2381 76.366 92.8045 77.5736 91.7077L121.134 52.1416C123.464 50.0247 127.167 49.544 130.153 50.9708L143.097 57.1549C147.58 59.2967 148.373 64.5811 144.661 67.5722L87.2957 113.792C82.3654 117.764 74.293 114.437 74.6851 108.594L75.5464 95.7566Z" fill="#164484"/>
</svg>
