<svg width="594" height="150" viewBox="0 0 594 150" fill="none" xmlns="http://www.w3.org/2000/svg">
<path d="M164.737 124.926C165.055 120.05 165.214 114.909 165.214 109.503C165.214 104.097 165.055 99.9453 164.737 97.048L162.935 96.889C162.864 96.3237 162.829 95.8467 162.829 95.458C162.829 95.034 162.882 94.5217 162.988 93.921C164.225 93.9563 165.656 93.974 167.281 93.974C168.906 93.974 170.32 93.9563 171.521 93.921C171.627 94.451 171.68 94.928 171.68 95.352C171.68 95.7407 171.645 96.253 171.574 96.889L169.56 97.048C169.313 100.369 169.189 104.945 169.189 110.775C169.189 116.57 169.313 120.969 169.56 123.972C170.655 124.078 172.245 124.131 174.33 124.131C176.45 124.131 178.058 124.043 179.153 123.866L179.312 120.262C179.913 120.156 180.443 120.103 180.902 120.103C181.397 120.103 181.856 120.121 182.28 120.156C182.386 122.841 182.545 125.456 182.757 128L182.492 128.265C180.831 128.088 177.457 128 172.369 128C167.281 128 164.136 128.018 162.935 128.053C162.829 127.523 162.776 127.064 162.776 126.675C162.776 126.251 162.811 125.721 162.882 125.085L164.737 124.926ZM203.393 109.715L203.181 117.347C203.181 119.75 203.322 122.099 203.605 124.396L205.566 124.555C205.637 125.12 205.672 125.65 205.672 126.145C205.672 126.604 205.619 127.099 205.513 127.629C204.488 127.664 202.492 127.841 199.524 128.159C199.277 127.488 199.082 126.657 198.941 125.668C196.185 127.753 193.8 128.795 191.786 128.795C189.807 128.795 188.253 128.159 187.122 126.887C186.027 125.58 185.479 123.742 185.479 121.375C185.479 118.972 186.221 117.082 187.705 115.704C189.224 114.326 191.115 113.637 193.376 113.637C195.673 113.637 197.634 114.061 199.259 114.909C199.294 114.52 199.312 113.884 199.312 113.001C199.312 110.386 198.941 108.514 198.199 107.383C197.492 106.217 196.397 105.634 194.913 105.634C193.429 105.634 192.351 105.917 191.68 106.482C191.963 107.047 192.104 107.754 192.104 108.602C192.104 109.45 191.821 110.192 191.256 110.828C190.726 111.429 189.966 111.729 188.977 111.729C187.316 111.729 186.486 110.757 186.486 108.814C186.486 106.835 187.228 105.316 188.712 104.256C190.196 103.196 192.281 102.666 194.966 102.666C197.651 102.666 199.718 103.302 201.167 104.574C202.651 105.811 203.393 107.524 203.393 109.715ZM199.047 118.248C197.598 117.011 196.044 116.393 194.383 116.393C191.203 116.393 189.613 117.806 189.613 120.633C189.613 123.53 190.867 124.979 193.376 124.979C194.295 124.979 195.266 124.749 196.291 124.29C197.351 123.795 198.181 123.195 198.782 122.488C198.959 120.368 199.047 118.955 199.047 118.248ZM226.218 113.637C226.218 108.584 224.716 106.058 221.713 106.058C219.558 106.058 217.508 107.206 215.565 109.503V123.76C217.19 124.573 218.904 124.979 220.706 124.979C224.381 124.979 226.218 121.198 226.218 113.637ZM215.565 106.27C218.038 103.867 220.529 102.666 223.038 102.666C225.547 102.666 227.455 103.691 228.762 105.74C230.069 107.789 230.723 110.651 230.723 114.326C230.723 119.308 229.857 122.965 228.126 125.297C226.43 127.629 223.745 128.795 220.07 128.795C217.773 128.795 214.717 128.336 210.901 127.417C211.466 123.954 211.749 118.336 211.749 110.563C211.749 102.79 211.661 97.7547 211.484 95.458L209.364 95.299C209.258 94.875 209.205 94.3273 209.205 93.656C209.205 92.9847 209.223 92.543 209.258 92.331C212.403 92.1897 214.699 92.0307 216.148 91.854L216.36 92.119C215.865 96.359 215.6 101.076 215.565 106.27ZM244.049 102.666C246.523 102.666 248.484 103.249 249.932 104.415C251.416 105.581 252.158 107.1 252.158 108.973C252.158 110.81 251.328 111.729 249.667 111.729C248.678 111.729 247.901 111.429 247.335 110.828C246.805 110.192 246.54 109.45 246.54 108.602C246.54 107.754 246.682 107.047 246.964 106.482C246.116 105.811 245.109 105.475 243.943 105.475C242.777 105.475 241.806 105.758 241.028 106.323C240.286 106.888 239.915 107.719 239.915 108.814C239.915 109.909 240.339 110.863 241.187 111.676C242.071 112.489 243.131 113.16 244.367 113.69C245.604 114.185 246.841 114.715 248.077 115.28C249.314 115.81 250.356 116.587 251.204 117.612C252.088 118.601 252.529 119.838 252.529 121.322C252.529 123.619 251.752 125.438 250.197 126.781C248.678 128.124 246.593 128.795 243.943 128.795C241.293 128.795 239.12 128.23 237.424 127.099C235.764 125.968 234.933 124.484 234.933 122.647V122.435C234.933 120.527 235.764 119.573 237.424 119.573C238.414 119.573 239.173 119.891 239.703 120.527C240.269 121.128 240.551 121.834 240.551 122.647C240.551 123.46 240.463 124.096 240.286 124.555C240.993 125.014 242.106 125.244 243.625 125.244C245.18 125.244 246.346 124.979 247.123 124.449C247.936 123.919 248.342 123.195 248.342 122.276C248.342 121.322 247.901 120.474 247.017 119.732C246.169 118.99 245.127 118.372 243.89 117.877C242.654 117.347 241.417 116.799 240.18 116.234C238.944 115.633 237.884 114.785 237 113.69C236.152 112.595 235.728 111.287 235.728 109.768C235.728 107.577 236.488 105.846 238.007 104.574C239.562 103.302 241.576 102.666 244.049 102.666Z" fill="#983030"/>
<path d="M184.288 34.323C184.193 33.5657 184.146 32.9267 184.146 32.406C184.146 31.838 184.217 31.1517 184.359 30.347C185.874 30.3943 187.743 30.418 189.968 30.418C192.24 30.418 194.204 30.3943 195.861 30.347C196.003 31.1517 196.074 31.909 196.074 32.619C196.074 33.2817 196.027 33.8497 195.932 34.323L193.447 34.536C186.962 48.4993 183.128 57.7293 181.945 62.226C182.087 65.8233 182.276 69.042 182.513 71.882L185.069 72.095C185.164 72.8523 185.211 73.515 185.211 74.083C185.211 74.6037 185.14 75.2663 184.998 76.071C183.341 76.0237 181.424 76 179.247 76C177.07 76 175.176 76.0237 173.567 76.071C173.425 75.361 173.354 74.7457 173.354 74.225C173.354 73.657 173.401 72.947 173.496 72.095L175.981 71.882C176.265 67.764 176.431 64.498 176.478 62.084C175.247 58.0133 171.934 50.582 166.538 39.79C165.023 36.8553 164.124 35.104 163.84 34.536L161.213 34.323C161.118 33.5657 161.071 32.9267 161.071 32.406C161.071 31.838 161.142 31.1517 161.284 30.347C162.941 30.3943 164.976 30.418 167.39 30.418C169.851 30.418 171.887 30.3943 173.496 30.347C173.638 31.057 173.709 31.696 173.709 32.264C173.709 32.7847 173.662 33.471 173.567 34.323L171.011 34.536C171.91 37.8967 173.401 41.849 175.484 46.393C177.567 50.937 178.892 53.8717 179.46 55.197H179.744C181.022 52.7357 182.371 49.5407 183.791 45.612C185.211 41.636 186.252 37.944 186.915 34.536L184.288 34.323ZM199.348 59.173C199.348 47.7657 203.798 42.062 212.696 42.062C221.595 42.062 226.044 47.7657 226.044 59.173C226.044 64.427 225.216 68.5923 223.559 71.669C221.666 75.2663 218.045 77.065 212.696 77.065C207.348 77.065 203.727 75.2663 201.833 71.669C200.177 68.5923 199.348 64.427 199.348 59.173ZM205.17 59.031C205.17 67.6457 207.679 71.953 212.696 71.953C217.714 71.953 220.222 67.6457 220.222 59.031C220.222 50.369 217.714 46.038 212.696 46.038C207.679 46.038 205.17 50.369 205.17 59.031ZM235.049 66.841L235.12 59.244C235.12 55.0313 234.93 50.9843 234.552 47.103L231.925 46.89C231.783 46.1327 231.712 45.3517 231.712 44.547C231.712 43.7423 231.735 43.198 231.783 42.914C234.197 42.8667 237.131 42.6537 240.587 42.275L240.942 42.63C240.516 45.4227 240.303 50.4163 240.303 57.611V60.948C240.303 64.924 240.658 67.764 241.368 69.468C242.125 71.1247 243.379 71.953 245.131 71.953C247.592 71.953 250.266 70.5093 253.154 67.622C253.248 66.5333 253.296 64.427 253.296 61.303V59.244C253.296 55.0313 253.106 50.9843 252.728 47.103L250.101 46.89C249.959 46.0853 249.888 45.3043 249.888 44.547C249.888 43.7423 249.911 43.198 249.959 42.914C252.373 42.8667 255.307 42.6537 258.763 42.275L259.118 42.63C258.692 45.4227 258.479 50.4163 258.479 57.611V59.883C258.479 63.7643 258.692 67.551 259.118 71.243L261.745 71.385C261.839 72.4263 261.887 73.2073 261.887 73.728C261.887 74.2013 261.816 74.793 261.674 75.503C259.828 75.5977 257.248 75.8343 253.935 76.213C253.556 75.361 253.272 74.1777 253.083 72.663C249.533 75.5977 246.267 77.065 243.285 77.065C240.303 77.065 238.173 76.2367 236.895 74.58C235.664 72.9233 235.049 70.3437 235.049 66.841ZM269.906 71.882C270.332 67.1487 270.545 62.8177 270.545 58.889C270.545 54.913 270.356 50.9843 269.977 47.103L267.35 46.89C267.208 46.1327 267.137 45.3517 267.137 44.547C267.137 43.7423 267.161 43.198 267.208 42.914C269.622 42.8667 272.557 42.6537 276.012 42.275L276.367 42.63C276.32 42.914 276.178 44.3103 275.941 46.819C277.03 45.4463 278.284 44.3103 279.704 43.411C281.172 42.5117 282.592 42.062 283.964 42.062C285.384 42.062 286.615 42.559 287.656 43.553C288.698 44.547 289.218 45.8487 289.218 47.458C289.218 50.1087 288.106 51.434 285.881 51.434C284.603 51.434 283.586 51.0317 282.828 50.227C282.071 49.375 281.692 48.2627 281.692 46.89C281.598 46.8427 281.432 46.819 281.195 46.819C279.444 46.819 277.645 48.1443 275.799 50.795C275.752 52.1203 275.728 55.1023 275.728 59.741C275.728 64.3323 275.941 68.3793 276.367 71.882L278.994 72.095C279.089 73.1363 279.136 73.87 279.136 74.296C279.136 74.6747 279.065 75.2663 278.923 76.071C277.598 76.0237 275.657 76 273.101 76C270.545 76 268.676 76.0237 267.492 76.071C267.35 75.361 267.279 74.6983 267.279 74.083C267.279 73.4203 267.327 72.7577 267.421 72.095L269.906 71.882ZM303.75 42.062C307.064 42.062 309.691 42.843 311.631 44.405C313.619 45.967 314.613 48.0023 314.613 50.511C314.613 52.9723 313.501 54.203 311.276 54.203C309.951 54.203 308.91 53.8007 308.152 52.996C307.442 52.144 307.087 51.15 307.087 50.014C307.087 48.878 307.277 47.9313 307.655 47.174C306.519 46.2747 305.17 45.825 303.608 45.825C302.046 45.825 300.745 46.2037 299.703 46.961C298.709 47.7183 298.212 48.8307 298.212 50.298C298.212 51.7653 298.78 53.0433 299.916 54.132C301.1 55.2207 302.52 56.12 304.176 56.83C305.833 57.4927 307.49 58.2027 309.146 58.96C310.803 59.67 312.199 60.7113 313.335 62.084C314.519 63.4093 315.11 65.066 315.11 67.054C315.11 70.1307 314.069 72.5683 311.986 74.367C309.951 76.1657 307.158 77.065 303.608 77.065C300.058 77.065 297.147 76.3077 294.875 74.793C292.651 73.2783 291.538 71.2903 291.538 68.829V68.545C291.538 65.989 292.651 64.711 294.875 64.711C296.201 64.711 297.218 65.137 297.928 65.989C298.686 66.7937 299.064 67.7403 299.064 68.829C299.064 69.9177 298.946 70.7697 298.709 71.385C299.656 72.0003 301.147 72.308 303.182 72.308C305.265 72.308 306.827 71.953 307.868 71.243C308.957 70.533 309.501 69.5627 309.501 68.332C309.501 67.054 308.91 65.918 307.726 64.924C306.59 63.93 305.194 63.1017 303.537 62.439C301.881 61.729 300.224 60.9953 298.567 60.238C296.911 59.4333 295.491 58.2973 294.307 56.83C293.171 55.3627 292.603 53.6113 292.603 51.576C292.603 48.6413 293.621 46.322 295.656 44.618C297.739 42.914 300.437 42.062 303.75 42.062ZM325.215 61.232L325.002 47.032C322.92 47.032 321.571 47.0557 320.955 47.103C320.671 46.2983 320.529 45.5173 320.529 44.76C320.529 44.0027 320.577 43.482 320.671 43.198H324.789C324.742 42.772 324.718 41.8253 324.718 40.358C324.718 32.1693 328.008 28.075 334.587 28.075C336.765 28.075 338.705 28.5483 340.409 29.495C342.161 30.4417 343.036 31.9327 343.036 33.968C343.036 36.6187 341.924 37.944 339.699 37.944C338.421 37.944 337.404 37.5653 336.646 36.808C335.936 36.0507 335.558 35.1987 335.51 34.252C335.51 33.3053 335.558 32.6427 335.652 32.264C335.226 32.0747 334.777 31.98 334.303 31.98C331.369 31.98 329.901 34.9147 329.901 40.784C329.901 41.9673 329.925 42.7483 329.972 43.127C333.522 43.0797 336.481 42.9377 338.847 42.701C339.131 43.3163 339.273 44.0027 339.273 44.76C339.273 45.5173 339.179 46.393 338.989 47.387C338.327 47.3397 335.439 47.245 330.327 47.103V53.777L330.398 59.173C330.398 64.3323 330.635 68.5687 331.108 71.882L333.664 72.095C333.759 72.521 333.806 73.089 333.806 73.799C333.806 74.509 333.735 75.2663 333.593 76.071C332.268 76.0237 330.327 76 327.771 76C325.215 76 323.346 76.0237 322.162 76.071C322.02 75.361 321.949 74.6983 321.949 74.083C321.949 73.4203 321.997 72.7577 322.091 72.095L324.505 71.882C324.979 67.2907 325.215 63.7407 325.215 61.232ZM346.661 71.882C347.087 67.1487 347.3 62.8177 347.3 58.889C347.3 54.913 347.111 50.9843 346.732 47.103L344.105 46.89C343.963 46.1327 343.892 45.3517 343.892 44.547C343.892 43.7423 343.916 43.198 343.963 42.914C346.377 42.8667 349.312 42.6537 352.767 42.275L353.122 42.63C353.075 42.914 352.933 44.3103 352.696 46.819C353.785 45.4463 355.039 44.3103 356.459 43.411C357.926 42.5117 359.346 42.062 360.719 42.062C362.139 42.062 363.37 42.559 364.411 43.553C365.452 44.547 365.973 45.8487 365.973 47.458C365.973 50.1087 364.861 51.434 362.636 51.434C361.358 51.434 360.34 51.0317 359.583 50.227C358.826 49.375 358.447 48.2627 358.447 46.89C358.352 46.8427 358.187 46.819 357.95 46.819C356.199 46.819 354.4 48.1443 352.554 50.795C352.507 52.1203 352.483 55.1023 352.483 59.741C352.483 64.3323 352.696 68.3793 353.122 71.882L355.749 72.095C355.844 73.1363 355.891 73.87 355.891 74.296C355.891 74.6747 355.82 75.2663 355.678 76.071C354.353 76.0237 352.412 76 349.856 76C347.3 76 345.43 76.0237 344.247 76.071C344.105 75.361 344.034 74.6983 344.034 74.083C344.034 73.4203 344.081 72.7577 344.176 72.095L346.661 71.882ZM372.695 71.882C373.121 67.2433 373.334 63.007 373.334 59.173C373.334 55.2917 373.145 51.2683 372.766 47.103L370.139 46.89C369.997 46.0853 369.926 45.328 369.926 44.618C369.926 43.8607 369.95 43.2927 369.997 42.914C372.743 42.8193 375.677 42.6063 378.801 42.275L379.156 42.63C378.73 45.4227 378.517 50.1087 378.517 56.688C378.517 63.2673 378.73 68.332 379.156 71.882L381.783 72.095C381.878 72.8523 381.925 73.515 381.925 74.083C381.925 74.6037 381.854 75.2663 381.712 76.071C380.056 76.0237 378.139 76 375.961 76C373.784 76 371.891 76.0237 370.281 76.071C370.139 75.361 370.068 74.6273 370.068 73.87C370.068 73.1127 370.116 72.521 370.21 72.095L372.695 71.882ZM379.866 32.477C379.866 35.4117 378.352 36.879 375.322 36.879C372.956 36.879 371.772 35.672 371.772 33.258C371.772 30.276 373.287 28.785 376.316 28.785C378.683 28.785 379.866 30.0157 379.866 32.477ZM400.364 60.238C398.044 60.238 395.891 60.1197 393.903 59.883C393.997 67.9297 396.672 71.953 401.926 71.953C404.576 71.953 407.511 70.4857 410.73 67.551C412.102 68.971 412.978 70.8407 413.357 73.16C409.475 75.7633 405.357 77.065 401.003 77.065C396.648 77.065 393.406 75.574 391.276 72.592C389.146 69.5627 388.081 65.137 388.081 59.315C388.081 53.493 389.264 49.162 391.631 46.322C394.045 43.482 397.453 42.062 401.855 42.062C405.121 42.062 407.819 43.056 409.949 45.044C412.079 47.032 413.144 49.4697 413.144 52.357C413.191 55.2443 412.954 57.3033 412.434 58.534C408.884 59.67 404.86 60.238 400.364 60.238ZM401.358 46.038C396.956 46.038 394.494 49.2803 393.974 55.765C396.104 56.0017 398.447 56.12 401.003 56.12C403.559 56.12 405.547 55.8833 406.967 55.41C407.156 54.2267 407.251 53.351 407.251 52.783C407.251 50.7003 406.706 49.0673 405.618 47.884C404.576 46.6533 403.156 46.038 401.358 46.038ZM448.372 51.15L448.301 58.037C448.301 63.007 448.585 67.622 449.153 71.882L451.638 72.095C451.733 73.1363 451.78 73.87 451.78 74.296C451.78 74.6747 451.709 75.2663 451.567 76.071C450.242 76.0237 448.254 76 445.603 76C442.952 76 441.059 76.0237 439.923 76.071C439.781 75.361 439.71 74.6983 439.71 74.083C439.71 73.4203 439.757 72.7577 439.852 72.095L442.337 71.882C442.716 66.344 442.905 61.6107 442.905 57.682C442.905 53.706 442.503 50.866 441.698 49.162C440.941 47.458 439.615 46.606 437.722 46.606C435.166 46.606 432.35 48.1443 429.273 51.221C429.226 52.4517 429.202 55.339 429.202 59.883C429.202 64.3797 429.415 68.3793 429.841 71.882L432.468 72.095C432.563 73.1363 432.61 73.87 432.61 74.296C432.61 74.6747 432.539 75.2663 432.397 76.071C431.072 76.0237 429.131 76 426.575 76C424.019 76 422.149 76.0237 420.966 76.071C420.824 75.361 420.753 74.6983 420.753 74.083C420.753 73.4203 420.8 72.7577 420.895 72.095L423.38 71.882C423.806 67.1487 424.019 62.8177 424.019 58.889C424.019 54.913 423.83 50.9843 423.451 47.103L420.824 46.89C420.682 46.0853 420.611 45.3043 420.611 44.547C420.611 43.7423 420.635 43.198 420.682 42.914C423.096 42.8667 426.031 42.6537 429.486 42.275L429.841 42.63C429.746 43.198 429.604 44.618 429.415 46.89C430.882 45.4227 432.586 44.263 434.527 43.411C436.468 42.5117 438.29 42.062 439.994 42.062C445.579 42.062 448.372 45.0913 448.372 51.15ZM478.703 43.766L478.774 39.293C478.774 36.453 478.68 34.1573 478.49 32.406L475.65 32.193C475.508 31.625 475.437 30.8913 475.437 29.992C475.437 29.0927 475.461 28.501 475.508 28.217C479.721 28.0277 482.798 27.8147 484.738 27.578L485.022 27.933C484.312 34.1337 483.957 42.133 483.957 51.931C483.957 61.6817 484.17 68.119 484.596 71.243L487.223 71.385C487.318 72.4263 487.365 73.2073 487.365 73.728C487.365 74.2013 487.294 74.793 487.152 75.503C485.306 75.5977 482.727 75.8343 479.413 76.213C479.035 75.4557 478.751 74.2487 478.561 72.592C475.295 75.574 471.982 77.065 468.621 77.065C465.308 77.065 462.752 75.5503 460.953 72.521C459.202 69.4917 458.326 65.208 458.326 59.67C458.326 54.0847 459.439 49.7537 461.663 46.677C463.935 43.6003 467.178 42.062 471.39 42.062C473.757 42.062 476.195 42.63 478.703 43.766ZM471.461 46.251C466.728 46.251 464.361 50.9607 464.361 60.38C464.361 63.93 464.882 66.699 465.923 68.687C467.012 70.6277 468.503 71.598 470.396 71.598C471.674 71.598 473.071 71.1957 474.585 70.391C476.147 69.5863 477.496 68.5687 478.632 67.338C478.727 61.4687 478.774 55.126 478.774 48.31C475.745 46.9373 473.307 46.251 471.461 46.251Z" fill="#164484"/>
<ellipse cx="72.9543" cy="52.5282" rx="25.965" ry="24.5282" fill="#983030"/>
<path d="M61.0493 50.656C62.0293 50.616 62.7493 50.406 63.2093 50.026C63.6693 49.626 63.8993 49.066 63.8993 48.346C63.8993 47.806 63.7993 46.736 63.5993 45.136C63.5793 44.976 63.5193 44.466 63.4193 43.606C63.3193 42.726 63.2693 41.936 63.2693 41.236C63.2693 39.536 63.7893 38.216 64.8293 37.276C65.8693 36.316 67.2593 35.836 68.9993 35.836H71.1593V40.036H69.9893C69.3493 40.036 68.8893 40.176 68.6093 40.456C68.3293 40.736 68.1893 41.166 68.1893 41.746C68.1893 42.186 68.2693 43.186 68.4293 44.746C68.6093 46.686 68.6993 47.956 68.6993 48.556C68.6993 49.656 68.4293 50.566 67.8893 51.286C67.3693 52.006 66.5693 52.466 65.4893 52.666V52.726C66.5693 52.946 67.3693 53.416 67.8893 54.136C68.4293 54.836 68.6993 55.746 68.6993 56.866C68.6993 57.466 68.6093 58.736 68.4293 60.676C68.2693 62.196 68.1893 63.186 68.1893 63.646C68.1893 64.226 68.3293 64.656 68.6093 64.936C68.8893 65.236 69.3493 65.386 69.9893 65.386H71.1593V69.586H68.9993C67.2593 69.586 65.8693 69.106 64.8293 68.146C63.7893 67.206 63.2693 65.876 63.2693 64.156C63.2693 63.456 63.3193 62.676 63.4193 61.816C63.5193 60.936 63.5793 60.416 63.5993 60.256C63.7993 58.656 63.8993 57.586 63.8993 57.046C63.8993 56.366 63.6693 55.826 63.2093 55.426C62.7493 55.006 62.0293 54.776 61.0493 54.736V50.656ZM85.53 54.736C84.55 54.776 83.83 55.006 83.37 55.426C82.91 55.826 82.68 56.366 82.68 57.046C82.68 57.586 82.78 58.656 82.98 60.256C83 60.416 83.06 60.936 83.16 61.816C83.26 62.676 83.31 63.456 83.31 64.156C83.31 65.876 82.79 67.206 81.75 68.146C80.71 69.106 79.32 69.586 77.58 69.586H75.42V65.386H76.59C77.23 65.386 77.69 65.236 77.97 64.936C78.25 64.656 78.39 64.226 78.39 63.646C78.39 63.186 78.31 62.196 78.15 60.676C77.97 58.736 77.88 57.466 77.88 56.866C77.88 55.746 78.14 54.836 78.66 54.136C79.2 53.416 80.01 52.946 81.09 52.726V52.666C80.01 52.466 79.2 52.006 78.66 51.286C78.14 50.566 77.88 49.656 77.88 48.556C77.88 47.956 77.97 46.686 78.15 44.746C78.31 43.186 78.39 42.186 78.39 41.746C78.39 41.166 78.25 40.736 77.97 40.456C77.69 40.176 77.23 40.036 76.59 40.036H75.42V35.836H77.58C79.32 35.836 80.71 36.316 81.75 37.276C82.79 38.216 83.31 39.536 83.31 41.236C83.31 41.936 83.26 42.726 83.16 43.606C83.06 44.466 83 44.976 82.98 45.136C82.78 46.736 82.68 47.806 82.68 48.346C82.68 49.066 82.91 49.626 83.37 50.026C83.83 50.406 84.55 50.616 85.53 50.656V54.736Z" fill="white"/>
<rect width="76.7706" height="22.6328" rx="6" transform="matrix(0.887524 0.460762 -0.570939 0.820992 12.9219 58.6371)" fill="#6AA964"/>
<rect width="50.3966" height="30.2447" rx="6" transform="matrix(0.887524 0.460762 -0.570939 0.820992 80.917 91.9485)" fill="#6AA964"/>
<path d="M75.5464 95.7566C75.6483 94.2381 76.366 92.8045 77.5736 91.7077L121.134 52.1416C123.464 50.0247 127.167 49.544 130.153 50.9708L143.097 57.1549C147.58 59.2967 148.373 64.5811 144.661 67.5722L87.2957 113.792C82.3654 117.764 74.293 114.437 74.6851 108.594L75.5464 95.7566Z" fill="#164484"/>
</svg>
